<?xml version="1.0" encoding="UTF-8"?>
<svg xmlns="http://www.w3.org/2000/svg" viewBox="0 0 234.01 128">
  <defs>
    <style>
      .cls-1 {
        letter-spacing: -.01em;
      }

      .cls-2 {
        fill: #002f47;
      }

      .cls-3 {
        font-family: Montserrat-ExtraBold, Montserrat;
        font-size: 15.19px;
        font-weight: 700;
      }

      .cls-3, .cls-4 {
        fill: #444;
      }

      .cls-5 {
        fill: #ffd800;
      }

      .cls-6 {
        fill: #4081cb;
      }
    </style>
  </defs>
  <g id="bg">
    <path class="cls-5" d="M223.57,0H9.74C4.22,0,0,4.46,0,9.98v65.85c0,5.52,4.22,10.17,9.74,10.17h164.26v17.77l13.2-17.77h36.37c5.52,0,10.43-4.64,10.43-10.17V9.98c0-5.52-4.91-9.98-10.43-9.98Z"/>
  </g>
  <g id="logo">
    <g>
      <path class="cls-2" d="M30.93,22.04L13.84,62.98h7.75l3.35-8.16h18.21l3.35,8.16h7.75l-17.09-40.94h-6.23ZM27.23,48.77l6.81-16.68,6.81,16.68h-13.63Z"/>
      <path class="cls-2" d="M74.05,22.04h-15.62v40.94h7.34v-14.33h8.28c6.81,0,13.33-5.46,13.33-13.28,0-8.28-6.81-13.33-13.33-13.33ZM73.7,42.01h-7.93v-13.33h7.93c2.94,0,6.4,2.06,6.4,6.7s-3.47,6.64-6.4,6.64Z"/>
      <path class="cls-2" d="M99.37,48.65h8.28c6.81,0,13.33-5.46,13.33-13.28,0-8.28-6.81-13.33-13.33-13.33h-15.62v40.94h7.34v-14.33ZM99.37,28.68h7.93c2.94,0,6.4,2.06,6.4,6.7s-3.47,6.64-6.4,6.64h-7.93v-13.33Z"/>
      <path class="cls-2" d="M158.48,22.04h-7.34v24.49c0,7.28-3.7,10.46-9.22,10.46s-9.28-3.17-9.28-10.46v-24.49h-7.34v25.26c0,10.93,7.34,16.33,16.62,16.33s16.56-5.4,16.56-16.33v-25.26Z"/>
      <rect class="cls-2" x="165" y="33.38" width="7.05" height="29.6"/>
      <path class="cls-2" d="M168.52,21.57c-2.29,0-4.23,1.82-4.23,4.17s1.94,4.17,4.23,4.17,4.17-1.82,4.17-4.17-1.94-4.17-4.17-4.17Z"/>
      <path class="cls-2" d="M198.61,63.81c12.04,0,21.67-9.16,21.67-21.2s-9.63-21.26-21.67-21.26-21.62,9.22-21.62,21.26,9.63,21.2,21.62,21.2ZM198.61,27.97c8.16,0,14.39,6.46,14.39,14.63s-6.23,14.57-14.39,14.57-14.39-6.29-14.39-14.57,6.23-14.63,14.39-14.63Z"/>
    </g>
  </g>
  <g id="guides">
    <g>
      <g>
        <polyline class="cls-4" points="154.74 125.35 143 118.56 143 115.67 154.73 108.81 154.73 111.85 145.5 117.16 154.81 122.37 154.79 125.38"/>
        <path class="cls-6" d="M169.19,108.42v2.77s-2.91-2.14-6.44-2.14c-3.82,0-8.08,2.79-8.08,2.79v-3.01c2.95-1.58,5.57-2.38,8.11-2.38,3.11,0,6.41,2,6.41,2"/>
        <path class="cls-6" d="M162.84,124.16c3.93,0,7.12-3.19,7.12-7.12,0-3.93-3.19-7.12-7.12-7.12h0c-3.94,0-7.14,3.19-7.14,7.12,0,3.94,3.2,7.12,7.14,7.12,0,0-.03,0-.03,0"/>
        <polyline class="cls-4" points="170.89 109.08 182.64 115.87 182.64 118.78 170.97 125.6 170.97 122.58 180.19 117.27 170.9 112.07 170.92 109.07"/>
        <path class="cls-6" d="M156.52,126.02v-2.77s2.91,2.15,6.44,2.15c3.82,0,8.08-2.8,8.08-2.8v3.01c-2.95,1.58-5.57,2.38-8.11,2.38-3.11,0-6.41-2-6.41-2"/>
        <path class="cls-4" d="M187.6,111.57h3.18l2.82,8.18,2.84-8.18h3.03l-4.42,11.3h-3.06l-4.39-11.3Z"/>
        <path class="cls-4" d="M206.37,114.14c-.68-.23-1.25-.34-1.72-.34-.36,0-.65.07-.86.2-.2.12-.32.35-.31.59,0,.24.1.46.27.62.2.18.43.31.68.4.27.1.67.23,1.19.39.66.18,1.31.41,1.94.68.52.23.97.59,1.31,1.03.36.47.55,1.08.55,1.83s-.2,1.39-.6,1.92c-.4.53-.94.93-1.63,1.2-.74.28-1.52.41-2.31.4-.95,0-1.89-.17-2.79-.49-.88-.3-1.69-.75-2.41-1.34l1.14-2.3c.6.52,1.28.94,2.02,1.24.78.32,1.47.48,2.07.48.44,0,.79-.08,1.04-.24.25-.15.39-.42.38-.71,0-.25-.1-.48-.28-.64-.21-.18-.45-.32-.71-.41-.29-.1-.69-.22-1.2-.36-.65-.17-1.29-.39-1.92-.65-.51-.22-.95-.57-1.3-1-.36-.45-.54-1.04-.54-1.78-.01-.65.18-1.3.56-1.84.37-.52.89-.93,1.57-1.22.68-.29,1.47-.43,2.37-.43.82,0,1.63.12,2.41.35.74.21,1.44.52,2.09.93l-1.11,2.35c-.61-.35-1.25-.64-1.93-.86Z"/>
        <path class="cls-4" d="M210.9,111.57h2.93v4.65h4.58v-4.65h2.93v11.3h-2.93v-4.36h-4.58v4.36h-2.93v-11.3Z"/>
        <path class="cls-4" d="M231.27,111.57h2.74v11.3h-2.59l-5.14-6.76v6.76h-2.72v-11.3h2.59l5.14,6.81-.02-6.81Z"/>
      </g>
      <text class="cls-3" transform="translate(116.54 122.91)"><tspan class="cls-1" x="0" y="0">b</tspan><tspan x="10.33" y="0">y</tspan></text>
    </g>
  </g>
</svg>