<?xml version="1.0" encoding="UTF-8"?>
<svg xmlns="http://www.w3.org/2000/svg" xmlns:xlink="http://www.w3.org/1999/xlink" width="189.49pt" height="22.99pt" viewBox="0 0 189.49 22.99" version="1.2">
<defs>
<clipPath id="clip1">
  <path d="M 6 0.0273438 L 22 0.0273438 L 22 22.953125 L 6 22.953125 Z M 6 0.0273438 "/>
</clipPath>
<clipPath id="clip2">
  <path d="M 29 0.0273438 L 49 0.0273438 L 49 22.953125 L 29 22.953125 Z M 29 0.0273438 "/>
</clipPath>
<clipPath id="clip3">
  <path d="M 54 0.0273438 L 89 0.0273438 L 89 22.953125 L 54 22.953125 Z M 54 0.0273438 "/>
</clipPath>
<clipPath id="clip4">
  <path d="M 93 0.0273438 L 113 0.0273438 L 113 22.953125 L 93 22.953125 Z M 93 0.0273438 "/>
</clipPath>
<clipPath id="clip5">
  <path d="M 118 0.0273438 L 139 0.0273438 L 139 22.953125 L 118 22.953125 Z M 118 0.0273438 "/>
</clipPath>
<clipPath id="clip6">
  <path d="M 143 0.0273438 L 166 0.0273438 L 166 22.953125 L 143 22.953125 Z M 143 0.0273438 "/>
</clipPath>
<clipPath id="clip7">
  <path d="M 168 0.0273438 L 188.980469 0.0273438 L 188.980469 22.953125 L 168 22.953125 Z M 168 0.0273438 "/>
</clipPath>
</defs>
<g id="surface1">
<path style=" stroke:none;fill-rule:nonzero;fill:rgb(23.751831%,24.171448%,24.697876%);fill-opacity:1;" d="M 6.082031 11.367188 C 6.082031 13.046875 4.722656 14.410156 3.042969 14.410156 C 1.363281 14.410156 0 13.046875 0 11.367188 C 0 9.6875 1.363281 8.324219 3.042969 8.324219 C 4.722656 8.324219 6.082031 9.6875 6.082031 11.367188 "/>
<g clip-path="url(#clip1)" clip-rule="nonzero">
<path style=" stroke:none;fill-rule:nonzero;fill:rgb(23.751831%,24.171448%,24.697876%);fill-opacity:1;" d="M 17.488281 7.628906 C 15.390625 7.628906 13.6875 5.925781 13.6875 3.824219 C 13.6875 1.726562 11.984375 0.0234375 9.886719 0.0234375 C 7.785156 0.0234375 6.082031 1.726562 6.082031 3.824219 C 6.082031 5.925781 7.785156 7.628906 9.886719 7.628906 C 11.984375 7.628906 13.6875 9.328125 13.6875 11.429688 C 13.6875 13.527344 11.984375 15.230469 9.886719 15.230469 C 7.785156 15.230469 6.082031 16.933594 6.082031 19.035156 C 6.082031 21.132812 7.785156 22.835938 9.886719 22.835938 C 11.984375 22.835938 13.6875 21.132812 13.6875 19.035156 C 13.6875 16.933594 15.390625 15.230469 17.488281 15.230469 C 19.589844 15.230469 21.292969 13.527344 21.292969 11.429688 C 21.292969 9.328125 19.589844 7.628906 17.488281 7.628906 "/>
</g>
<g clip-path="url(#clip2)" clip-rule="nonzero">
<path style=" stroke:none;fill-rule:nonzero;fill:rgb(23.751831%,24.171448%,24.697876%);fill-opacity:1;" d="M 43.253906 14.070312 C 42.9375 13.980469 42.582031 13.910156 42.191406 13.851562 C 41.859375 13.777344 41.464844 13.722656 41.011719 13.675781 C 40.554688 13.632812 40.046875 13.613281 39.484375 13.613281 C 37.820312 13.613281 36.59375 13.835938 35.800781 14.285156 C 35.003906 14.734375 34.609375 15.402344 34.609375 16.285156 C 34.609375 16.71875 34.6875 17.117188 34.847656 17.480469 C 35.003906 17.839844 35.242188 18.15625 35.5625 18.425781 C 35.878906 18.691406 36.269531 18.90625 36.730469 19.066406 C 37.195312 19.222656 37.726562 19.304688 38.335938 19.304688 C 39.113281 19.304688 39.808594 19.164062 40.414062 18.878906 C 41.023438 18.597656 41.542969 18.289062 41.976562 17.957031 C 42.46875 17.550781 42.890625 17.101562 43.253906 16.609375 Z M 43.253906 8.527344 C 43.253906 7.71875 43.167969 7.023438 42.992188 6.441406 C 42.820312 5.863281 42.539062 5.394531 42.15625 5.03125 C 41.773438 4.667969 41.265625 4.402344 40.636719 4.226562 C 40.007812 4.054688 39.242188 3.964844 38.34375 3.964844 C 37.476562 3.964844 36.726562 4.035156 36.097656 4.171875 C 35.464844 4.308594 34.921875 4.464844 34.464844 4.628906 C 34.011719 4.796875 33.621094 4.945312 33.292969 5.074219 C 32.96875 5.203125 32.667969 5.269531 32.390625 5.269531 C 31.929688 5.269531 31.550781 5.125 31.261719 4.835938 C 30.972656 4.546875 30.828125 4.140625 30.828125 3.617188 C 30.828125 3.34375 30.871094 3.101562 30.957031 2.890625 C 31.042969 2.679688 31.195312 2.472656 31.414062 2.273438 C 31.617188 2.054688 31.960938 1.824219 32.445312 1.578125 C 32.929688 1.332031 33.519531 1.105469 34.214844 0.902344 C 34.910156 0.699219 35.699219 0.527344 36.585938 0.382812 C 37.46875 0.238281 38.410156 0.164062 39.410156 0.164062 C 42.289062 0.164062 44.453125 0.8125 45.894531 2.109375 C 47.335938 3.40625 48.054688 5.292969 48.054688 7.769531 L 48.054688 15.394531 C 48.054688 16.363281 48.089844 17.148438 48.152344 17.75 C 48.21875 18.351562 48.289062 18.847656 48.371094 19.238281 C 48.449219 19.628906 48.523438 19.949219 48.585938 20.195312 C 48.652344 20.441406 48.683594 20.6875 48.683594 20.933594 C 48.683594 21.195312 48.632812 21.433594 48.535156 21.652344 C 48.429688 21.867188 48.292969 22.058594 48.121094 22.226562 C 47.945312 22.394531 47.726562 22.519531 47.457031 22.605469 C 47.191406 22.695312 46.894531 22.738281 46.578125 22.738281 C 46.1875 22.738281 45.839844 22.671875 45.535156 22.542969 C 45.230469 22.410156 44.96875 22.222656 44.742188 21.976562 C 44.519531 21.730469 44.328125 21.433594 44.179688 21.085938 C 44.023438 20.738281 43.90625 20.355469 43.820312 19.933594 L 43.753906 19.933594 C 43.289062 20.5 42.734375 21.007812 42.082031 21.453125 C 41.53125 21.832031 40.84375 22.175781 40.015625 22.488281 C 39.191406 22.796875 38.226562 22.953125 37.128906 22.953125 C 35.953125 22.953125 34.902344 22.789062 33.976562 22.464844 C 33.050781 22.140625 32.269531 21.6875 31.632812 21.109375 C 30.992188 20.527344 30.507812 19.84375 30.175781 19.054688 C 29.84375 18.265625 29.675781 17.40625 29.675781 16.480469 C 29.675781 15.480469 29.894531 14.597656 30.328125 13.828125 C 30.761719 13.0625 31.382812 12.425781 32.1875 11.917969 C 32.988281 11.410156 33.964844 11.027344 35.109375 10.765625 C 36.25 10.507812 37.539062 10.375 38.972656 10.375 C 39.640625 10.375 40.238281 10.398438 40.765625 10.441406 C 41.296875 10.484375 41.746094 10.535156 42.125 10.59375 C 42.558594 10.652344 42.933594 10.722656 43.253906 10.808594 L 43.253906 8.527344 "/>
</g>
<g clip-path="url(#clip3)" clip-rule="nonzero">
<path style=" stroke:none;fill-rule:nonzero;fill:rgb(23.751831%,24.171448%,24.697876%);fill-opacity:1;" d="M 54.941406 2.359375 C 54.941406 1.722656 55.117188 1.230469 55.464844 0.882812 C 55.8125 0.535156 56.304688 0.359375 56.941406 0.359375 C 57.257812 0.359375 57.542969 0.398438 57.789062 0.480469 C 58.035156 0.558594 58.246094 0.683594 58.429688 0.847656 C 58.609375 1.015625 58.75 1.214844 58.851562 1.445312 C 58.953125 1.679688 59.027344 1.945312 59.070312 2.25 L 59.265625 3.574219 L 59.351562 3.574219 C 59.773438 2.9375 60.300781 2.367188 60.9375 1.859375 C 61.199219 1.640625 61.503906 1.433594 61.851562 1.230469 C 62.199219 1.027344 62.582031 0.84375 63 0.6875 C 63.421875 0.527344 63.878906 0.398438 64.371094 0.304688 C 64.863281 0.210938 65.40625 0.164062 66 0.164062 C 67.707031 0.164062 69.140625 0.515625 70.289062 1.21875 C 71.441406 1.921875 72.328125 2.878906 72.953125 4.097656 C 73.445312 3.375 74.046875 2.722656 74.753906 2.140625 C 75.058594 1.894531 75.398438 1.652344 75.777344 1.414062 C 76.152344 1.175781 76.570312 0.960938 77.023438 0.773438 C 77.480469 0.585938 77.980469 0.4375 78.523438 0.328125 C 79.066406 0.21875 79.648438 0.164062 80.273438 0.164062 C 81.488281 0.164062 82.59375 0.355469 83.585938 0.742188 C 84.578125 1.125 85.425781 1.695312 86.128906 2.457031 C 86.832031 3.214844 87.371094 4.15625 87.746094 5.269531 C 88.121094 6.386719 88.3125 7.675781 88.3125 9.136719 L 88.3125 20.542969 C 88.3125 21.222656 88.113281 21.753906 87.714844 22.128906 C 87.316406 22.503906 86.710938 22.695312 85.898438 22.695312 C 85.089844 22.695312 84.484375 22.503906 84.085938 22.128906 C 83.6875 21.753906 83.488281 21.226562 83.488281 20.542969 L 83.488281 9.78125 C 83.488281 8.785156 83.386719 7.925781 83.183594 7.210938 C 82.980469 6.496094 82.6875 5.90625 82.304688 5.441406 C 81.921875 4.980469 81.453125 4.636719 80.902344 4.410156 C 80.351562 4.1875 79.742188 4.074219 79.078125 4.074219 C 78.644531 4.074219 78.242188 4.128906 77.875 4.238281 C 77.503906 4.34375 77.160156 4.484375 76.839844 4.660156 C 76.523438 4.832031 76.230469 5.027344 75.960938 5.242188 C 75.691406 5.457031 75.449219 5.679688 75.234375 5.910156 C 74.742188 6.429688 74.304688 7.027344 73.929688 7.703125 C 73.929688 7.804688 73.949219 8.046875 73.984375 8.429688 C 74.019531 8.816406 74.039062 9.253906 74.039062 9.746094 L 74.039062 20.542969 C 74.039062 21.222656 73.839844 21.753906 73.441406 22.128906 C 73.042969 22.503906 72.4375 22.695312 71.625 22.695312 C 70.816406 22.695312 70.210938 22.503906 69.8125 22.128906 C 69.414062 21.753906 69.214844 21.226562 69.214844 20.542969 L 69.214844 9.78125 C 69.214844 8.785156 69.113281 7.925781 68.910156 7.210938 C 68.707031 6.496094 68.414062 5.90625 68.03125 5.441406 C 67.648438 4.980469 67.179688 4.636719 66.628906 4.410156 C 66.078125 4.1875 65.464844 4.074219 64.785156 4.074219 C 64.378906 4.074219 63.992188 4.128906 63.632812 4.238281 C 63.269531 4.34375 62.929688 4.476562 62.609375 4.636719 C 62.292969 4.792969 62.003906 4.976562 61.742188 5.1875 C 61.480469 5.394531 61.25 5.609375 61.046875 5.824219 C 60.539062 6.339844 60.113281 6.917969 59.765625 7.550781 L 59.765625 20.542969 C 59.765625 21.222656 59.566406 21.753906 59.167969 22.128906 C 58.769531 22.503906 58.164062 22.695312 57.351562 22.695312 C 56.542969 22.695312 55.9375 22.503906 55.539062 22.128906 C 55.140625 21.753906 54.941406 21.222656 54.941406 20.542969 L 54.941406 2.359375 "/>
</g>
<g clip-path="url(#clip4)" clip-rule="nonzero">
<path style=" stroke:none;fill-rule:nonzero;fill:rgb(23.751831%,24.171448%,24.697876%);fill-opacity:1;" d="M 107.300781 14.070312 C 106.980469 13.980469 106.628906 13.910156 106.238281 13.851562 C 105.90625 13.777344 105.511719 13.722656 105.054688 13.675781 C 104.601562 13.632812 104.09375 13.613281 103.527344 13.613281 C 101.867188 13.613281 100.640625 13.835938 99.84375 14.285156 C 99.050781 14.734375 98.652344 15.402344 98.652344 16.285156 C 98.652344 16.71875 98.730469 17.117188 98.890625 17.480469 C 99.050781 17.839844 99.289062 18.15625 99.605469 18.425781 C 99.925781 18.691406 100.3125 18.90625 100.777344 19.066406 C 101.238281 19.222656 101.773438 19.304688 102.378906 19.304688 C 103.160156 19.304688 103.851562 19.164062 104.460938 18.878906 C 105.066406 18.597656 105.585938 18.289062 106.019531 17.957031 C 106.511719 17.550781 106.9375 17.101562 107.300781 16.609375 Z M 107.300781 8.527344 C 107.300781 7.71875 107.210938 7.023438 107.039062 6.441406 C 106.863281 5.863281 106.585938 5.394531 106.199219 5.03125 C 105.816406 4.667969 105.3125 4.402344 104.679688 4.226562 C 104.050781 4.054688 103.285156 3.964844 102.390625 3.964844 C 101.519531 3.964844 100.769531 4.035156 100.140625 4.171875 C 99.511719 4.308594 98.96875 4.464844 98.511719 4.628906 C 98.054688 4.796875 97.664062 4.945312 97.335938 5.074219 C 97.011719 5.203125 96.710938 5.269531 96.4375 5.269531 C 95.972656 5.269531 95.597656 5.125 95.308594 4.835938 C 95.015625 4.546875 94.871094 4.140625 94.871094 3.617188 C 94.871094 3.34375 94.917969 3.101562 95.003906 2.890625 C 95.089844 2.679688 95.242188 2.472656 95.460938 2.273438 C 95.660156 2.054688 96.003906 1.824219 96.492188 1.578125 C 96.976562 1.332031 97.566406 1.105469 98.261719 0.902344 C 98.957031 0.699219 99.746094 0.527344 100.628906 0.382812 C 101.511719 0.238281 102.453125 0.164062 103.453125 0.164062 C 106.335938 0.164062 108.496094 0.8125 109.9375 2.109375 C 111.378906 3.40625 112.101562 5.292969 112.101562 7.769531 L 112.101562 15.394531 C 112.101562 16.363281 112.132812 17.148438 112.199219 17.75 C 112.265625 18.351562 112.335938 18.847656 112.414062 19.238281 C 112.496094 19.628906 112.566406 19.949219 112.632812 20.195312 C 112.699219 20.441406 112.730469 20.6875 112.730469 20.933594 C 112.730469 21.195312 112.679688 21.433594 112.578125 21.652344 C 112.476562 21.867188 112.339844 22.058594 112.164062 22.226562 C 111.992188 22.394531 111.769531 22.519531 111.503906 22.605469 C 111.234375 22.695312 110.941406 22.738281 110.625 22.738281 C 110.230469 22.738281 109.882812 22.671875 109.578125 22.542969 C 109.277344 22.410156 109.011719 22.222656 108.789062 21.976562 C 108.5625 21.730469 108.375 21.433594 108.222656 21.085938 C 108.070312 20.738281 107.949219 20.355469 107.863281 19.933594 L 107.800781 19.933594 C 107.335938 20.5 106.777344 21.007812 106.125 21.453125 C 105.574219 21.832031 104.886719 22.175781 104.0625 22.488281 C 103.234375 22.796875 102.273438 22.953125 101.171875 22.953125 C 100 22.953125 98.949219 22.789062 98.023438 22.464844 C 97.09375 22.140625 96.3125 21.6875 95.675781 21.109375 C 95.039062 20.527344 94.554688 19.84375 94.21875 19.054688 C 93.886719 18.265625 93.722656 17.40625 93.722656 16.480469 C 93.722656 15.480469 93.9375 14.597656 94.371094 13.828125 C 94.808594 13.0625 95.425781 12.425781 96.230469 11.917969 C 97.035156 11.410156 98.007812 11.027344 99.152344 10.765625 C 100.296875 10.507812 101.585938 10.375 103.019531 10.375 C 103.683594 10.375 104.28125 10.398438 104.8125 10.441406 C 105.339844 10.484375 105.792969 10.535156 106.167969 10.59375 C 106.605469 10.652344 106.980469 10.722656 107.300781 10.808594 L 107.300781 8.527344 "/>
</g>
<g clip-path="url(#clip5)" clip-rule="nonzero">
<path style=" stroke:none;fill-rule:nonzero;fill:rgb(23.751831%,24.171448%,24.697876%);fill-opacity:1;" d="M 118.988281 2.359375 C 118.988281 1.722656 119.160156 1.230469 119.507812 0.882812 C 119.855469 0.535156 120.347656 0.359375 120.984375 0.359375 C 121.304688 0.359375 121.585938 0.398438 121.832031 0.480469 C 122.078125 0.558594 122.292969 0.683594 122.472656 0.847656 C 122.65625 1.015625 122.796875 1.214844 122.898438 1.445312 C 122.996094 1.679688 123.070312 1.945312 123.113281 2.25 L 123.308594 3.574219 L 123.398438 3.574219 C 123.816406 2.9375 124.351562 2.367188 125.003906 1.859375 C 125.28125 1.640625 125.59375 1.433594 125.949219 1.230469 C 126.304688 1.027344 126.699219 0.84375 127.132812 0.6875 C 127.570312 0.527344 128.042969 0.398438 128.554688 0.304688 C 129.070312 0.210938 129.625 0.164062 130.21875 0.164062 C 131.492188 0.164062 132.636719 0.355469 133.652344 0.742188 C 134.664062 1.125 135.53125 1.695312 136.246094 2.457031 C 136.964844 3.214844 137.511719 4.15625 137.886719 5.269531 C 138.265625 6.386719 138.453125 7.675781 138.453125 9.136719 L 138.453125 20.542969 C 138.453125 21.222656 138.253906 21.753906 137.855469 22.128906 C 137.457031 22.503906 136.851562 22.695312 136.039062 22.695312 C 135.230469 22.695312 134.625 22.503906 134.226562 22.128906 C 133.828125 21.753906 133.628906 21.226562 133.628906 20.542969 L 133.628906 9.78125 C 133.628906 8.785156 133.527344 7.925781 133.324219 7.210938 C 133.121094 6.496094 132.824219 5.90625 132.421875 5.441406 C 132.027344 4.980469 131.539062 4.636719 130.96875 4.410156 C 130.394531 4.1875 129.746094 4.074219 129.023438 4.074219 C 128.589844 4.074219 128.183594 4.128906 127.808594 4.238281 C 127.429688 4.34375 127.074219 4.476562 126.742188 4.636719 C 126.410156 4.792969 126.109375 4.976562 125.839844 5.1875 C 125.574219 5.394531 125.332031 5.609375 125.113281 5.824219 C 124.589844 6.339844 124.15625 6.917969 123.808594 7.550781 L 123.808594 20.542969 C 123.808594 21.222656 123.609375 21.753906 123.210938 22.128906 C 122.8125 22.503906 122.210938 22.695312 121.398438 22.695312 C 120.585938 22.695312 119.984375 22.503906 119.585938 22.128906 C 119.1875 21.753906 118.988281 21.222656 118.988281 20.542969 L 118.988281 2.359375 "/>
</g>
<g clip-path="url(#clip6)" clip-rule="nonzero">
<path style=" stroke:none;fill-rule:nonzero;fill:rgb(23.751831%,24.171448%,24.697876%);fill-opacity:1;" d="M 148.707031 11.503906 C 148.707031 12.75 148.863281 13.847656 149.171875 14.796875 C 149.484375 15.746094 149.914062 16.542969 150.464844 17.1875 C 151.015625 17.832031 151.660156 18.320312 152.398438 18.652344 C 153.140625 18.984375 153.933594 19.152344 154.789062 19.152344 C 155.628906 19.152344 156.417969 18.992188 157.148438 18.675781 C 157.878906 18.355469 158.511719 17.878906 159.046875 17.242188 C 159.582031 16.605469 160.003906 15.8125 160.308594 14.871094 C 160.613281 13.929688 160.765625 12.835938 160.765625 11.59375 C 160.765625 10.359375 160.605469 9.269531 160.285156 8.3125 C 159.96875 7.355469 159.53125 6.554688 158.980469 5.910156 C 158.429688 5.265625 157.792969 4.777344 157.058594 4.445312 C 156.328125 4.113281 155.542969 3.945312 154.703125 3.945312 C 153.847656 3.945312 153.054688 4.105469 152.324219 4.433594 C 151.59375 4.757812 150.953125 5.238281 150.414062 5.867188 C 149.867188 6.496094 149.449219 7.285156 149.152344 8.226562 C 148.855469 9.164062 148.707031 10.261719 148.707031 11.503906 Z M 143.773438 11.941406 C 143.773438 10.085938 144.039062 8.425781 144.570312 6.964844 C 145.097656 5.503906 145.851562 4.265625 146.832031 3.261719 C 147.808594 2.253906 148.992188 1.484375 150.375 0.945312 C 151.757812 0.410156 153.308594 0.144531 155.019531 0.144531 C 156.597656 0.144531 158.039062 0.402344 159.347656 0.925781 C 160.652344 1.445312 161.773438 2.1875 162.714844 3.152344 C 163.660156 4.117188 164.390625 5.277344 164.914062 6.636719 C 165.433594 8 165.695312 9.507812 165.695312 11.15625 C 165.695312 13.011719 165.429688 14.671875 164.902344 16.132812 C 164.371094 17.59375 163.621094 18.832031 162.648438 19.847656 C 161.679688 20.863281 160.503906 21.632812 159.117188 22.160156 C 157.734375 22.6875 156.1875 22.953125 154.472656 22.953125 C 152.894531 22.953125 151.449219 22.695312 150.136719 22.171875 C 148.824219 21.652344 147.695312 20.910156 146.753906 19.945312 C 145.8125 18.980469 145.082031 17.824219 144.558594 16.46875 C 144.035156 15.113281 143.773438 13.605469 143.773438 11.941406 "/>
</g>
<g clip-path="url(#clip7)" clip-rule="nonzero">
<path style=" stroke:none;fill-rule:nonzero;fill:rgb(23.751831%,24.171448%,24.697876%);fill-opacity:1;" d="M 170.648438 5.132812 C 170.445312 4.902344 170.265625 4.699219 170.105469 4.515625 C 169.945312 4.335938 169.8125 4.164062 169.703125 3.996094 C 169.59375 3.828125 169.507812 3.664062 169.441406 3.496094 C 169.378906 3.328125 169.34375 3.152344 169.34375 2.964844 C 169.34375 2.574219 169.433594 2.222656 169.605469 1.914062 C 169.78125 1.601562 170 1.324219 170.269531 1.085938 C 170.535156 0.847656 170.828125 0.667969 171.148438 0.546875 C 171.464844 0.421875 171.769531 0.359375 172.0625 0.359375 C 172.308594 0.359375 172.527344 0.398438 172.722656 0.46875 C 172.917969 0.542969 173.097656 0.648438 173.253906 0.792969 C 173.300781 0.824219 173.347656 0.863281 173.394531 0.914062 C 173.449219 0.964844 173.507812 1.03125 173.582031 1.109375 C 173.652344 1.1875 173.746094 1.296875 173.855469 1.433594 C 173.960938 1.570312 174.101562 1.75 174.277344 1.964844 L 179.304688 8.21875 L 183.878906 2.054688 C 184.039062 1.835938 184.167969 1.660156 184.269531 1.523438 C 184.371094 1.382812 184.457031 1.277344 184.53125 1.195312 C 184.601562 1.117188 184.65625 1.050781 184.695312 1 C 184.730469 0.949219 184.769531 0.910156 184.8125 0.878906 C 184.988281 0.707031 185.175781 0.578125 185.378906 0.492188 C 185.582031 0.402344 185.8125 0.359375 186.074219 0.359375 C 186.363281 0.359375 186.65625 0.417969 186.953125 0.535156 C 187.25 0.648438 187.519531 0.8125 187.769531 1.023438 C 188.015625 1.230469 188.210938 1.476562 188.355469 1.761719 C 188.5 2.042969 188.570312 2.347656 188.570312 2.683594 C 188.570312 2.855469 188.546875 3.027344 188.496094 3.191406 C 188.445312 3.359375 188.367188 3.523438 188.265625 3.679688 C 188.164062 3.839844 188.039062 4.003906 187.886719 4.167969 C 187.734375 4.335938 187.570312 4.519531 187.398438 4.722656 L 181.960938 11.167969 L 187.679688 17.953125 C 187.867188 18.183594 188.042969 18.390625 188.203125 18.574219 C 188.359375 18.753906 188.5 18.929688 188.613281 19.105469 C 188.730469 19.277344 188.820312 19.449219 188.886719 19.617188 C 188.953125 19.78125 188.984375 19.953125 188.984375 20.128906 C 188.984375 20.519531 188.898438 20.875 188.722656 21.191406 C 188.550781 21.511719 188.328125 21.785156 188.0625 22.019531 C 187.792969 22.25 187.5 22.433594 187.179688 22.5625 C 186.863281 22.691406 186.558594 22.757812 186.269531 22.757812 C 186.023438 22.757812 185.796875 22.71875 185.59375 22.636719 C 185.390625 22.558594 185.210938 22.445312 185.054688 22.300781 C 185.007812 22.257812 184.964844 22.210938 184.921875 22.160156 C 184.878906 22.109375 184.820312 22.046875 184.75 21.976562 C 184.675781 21.902344 184.582031 21.796875 184.464844 21.660156 C 184.351562 21.523438 184.207031 21.34375 184.03125 21.128906 L 178.589844 14.363281 L 173.625 21.039062 C 173.464844 21.257812 173.332031 21.433594 173.222656 21.574219 C 173.113281 21.710938 173.027344 21.824219 172.960938 21.910156 C 172.898438 21.996094 172.847656 22.0625 172.8125 22.105469 C 172.773438 22.148438 172.734375 22.1875 172.691406 22.214844 C 172.519531 22.386719 172.324219 22.523438 172.117188 22.617188 C 171.90625 22.710938 171.671875 22.757812 171.410156 22.757812 C 171.121094 22.757812 170.828125 22.699219 170.539062 22.585938 C 170.25 22.46875 169.988281 22.304688 169.746094 22.09375 C 169.507812 21.886719 169.3125 21.636719 169.160156 21.34375 C 169.007812 21.054688 168.933594 20.75 168.933594 20.433594 C 168.933594 20.242188 168.960938 20.070312 169.019531 19.910156 C 169.078125 19.75 169.160156 19.585938 169.269531 19.421875 C 169.378906 19.253906 169.503906 19.082031 169.648438 18.910156 C 169.792969 18.734375 169.953125 18.546875 170.125 18.34375 L 175.941406 11.40625 L 170.648438 5.132812 "/>
</g>
</g>
</svg>
