<svg xmlns="http://www.w3.org/2000/svg" viewBox="0 0 595.3 284.3"><linearGradient id="a" gradientUnits="userSpaceOnUse" x1="485.908" y1="156.573" x2="485.908" y2="40.063"><stop offset="0" stop-color="#2A3180"></stop><stop offset=".081" stop-color="#284D98"></stop><stop offset=".169" stop-color="#2764AB"></stop><stop offset=".265" stop-color="#2674B8"></stop><stop offset=".373" stop-color="#257DC0"></stop><stop offset=".519" stop-color="#2580C3"></stop><stop offset=".635" stop-color="#257CC0"></stop><stop offset=".74" stop-color="#2671B7"></stop><stop offset=".841" stop-color="#275FA7"></stop><stop offset=".938" stop-color="#294691"></stop><stop offset="1" stop-color="#2A3180"></stop></linearGradient><path d="M459.2 46.8L501 156.6s0 .3 2.1-5.2c2.1-5.3 10.6-32.8 10.6-32.8S492.6 62.5 486 45.2c-1.5-4.7-3-5-4.4-5-5 0-16.3-.2-21 0-3.6.1-2.7 3.2-1.4 6.6z" fill="url(#a)"></path><linearGradient id="b" gradientUnits="userSpaceOnUse" x1="515.894" y1="126.853" x2="483.896" y2="108.379"><stop offset="0" stop-color="#29265B"></stop><stop offset=".197" stop-color="#28447E" stop-opacity=".803"></stop><stop offset=".407" stop-color="#265E9C" stop-opacity=".593"></stop><stop offset=".615" stop-color="#2671B2" stop-opacity=".386"></stop><stop offset=".815" stop-color="#257CBF" stop-opacity=".185"></stop><stop offset="1" stop-color="#2580C3" stop-opacity="0"></stop></linearGradient><path d="M499.6 81.1l14 37.3-13 34.2s-.4 1.9-.5 1.5c-1-2.5-13.2-34.3-13.2-34.3s6.4-27.1 12.7-38.7z" fill="url(#b)"></path><linearGradient id="c" gradientUnits="userSpaceOnUse" x1="276.336" y1="153.559" x2="276.336" y2="40.131"><stop offset="0" stop-color="#2A3180"></stop><stop offset=".078" stop-color="#284B96"></stop><stop offset=".171" stop-color="#2762AA"></stop><stop offset=".27" stop-color="#2673B8"></stop><stop offset=".38" stop-color="#257DC0"></stop><stop offset=".519" stop-color="#2580C3"></stop><stop offset=".617" stop-color="#257BBF"></stop><stop offset=".734" stop-color="#266CB2"></stop><stop offset=".86" stop-color="#28549E"></stop><stop offset=".993" stop-color="#2A3382"></stop><stop offset="1" stop-color="#2A3180"></stop></linearGradient><path d="M249.7 46.8L289 150.2s2.5 6.8 4.7 1.2c2.1-5.3 10.6-32.8 10.6-32.8s-21.2-56.1-27.7-73.4c-1.8-5-3-5-4.4-5h-21.5c-3.4-.1-2.3 3.2-1 6.6z" fill="url(#c)"></path><linearGradient id="d" gradientUnits="userSpaceOnUse" x1="359.836" y1="153.704" x2="359.836" y2="40.131"><stop offset="0" stop-color="#2A3180"></stop><stop offset=".078" stop-color="#284B96"></stop><stop offset=".171" stop-color="#2762AA"></stop><stop offset=".27" stop-color="#2673B8"></stop><stop offset=".38" stop-color="#257DC0"></stop><stop offset=".519" stop-color="#2580C3"></stop><stop offset=".617" stop-color="#257BBF"></stop><stop offset=".734" stop-color="#266CB2"></stop><stop offset=".86" stop-color="#28549E"></stop><stop offset=".993" stop-color="#2A3382"></stop><stop offset="1" stop-color="#2A3180"></stop></linearGradient><path d="M333.2 46.8s9.6 26.1 19.1 51.9c8.9 24.3 17.8 48.5 18.6 50.8 1.5 4.2 3.2 4.2 3.2 4.2s2.3.2 3.1-2.3c1.7-5.4 10.6-32.8 10.6-32.8S366.6 62.5 360 45.2c-1.8-5-3-5-4.4-5h-21.5c-3.3-.1-2.2 3.2-.9 6.6z" fill="url(#d)"></path><linearGradient id="e" gradientUnits="userSpaceOnUse" x1="325.047" y1="153.699" x2="325.047" y2="40.085"><stop offset="0" stop-color="#2A3180"></stop><stop offset=".078" stop-color="#284B96"></stop><stop offset=".171" stop-color="#2762AA"></stop><stop offset=".27" stop-color="#2673B8"></stop><stop offset=".38" stop-color="#257DC0"></stop><stop offset=".519" stop-color="#2580C3"></stop><stop offset=".617" stop-color="#257BBF"></stop><stop offset=".734" stop-color="#266CB2"></stop><stop offset=".86" stop-color="#28549E"></stop><stop offset=".993" stop-color="#2A3382"></stop><stop offset="1" stop-color="#2A3180"></stop></linearGradient><path d="M291.4 152.7l39.7-110.4s.6-2.2 2.5-2.2h20.9s2.4-.1 3 .6c.3.3.9.8 1.2 1.8.2.9.1 2.4-.7 4.3-2.9 7.4-38.2 104.4-38.2 104.4s-.9 2.6-3.3 2.6c-3 0-21.2-.1-24.7-.1-.7-.1-.4-1-.4-1z" fill="url(#e)"></path><linearGradient id="f" gradientUnits="userSpaceOnUse" x1="2466.077" y1="128.513" x2="2466.077" y2="40.08" gradientTransform="matrix(-1 0 0 1 2908.752 0)"><stop offset="0" stop-color="#2A3180"></stop><stop offset=".028" stop-color="#29418D"></stop><stop offset=".08" stop-color="#2858A1"></stop><stop offset=".14" stop-color="#266AB0"></stop><stop offset=".212" stop-color="#2677BB"></stop><stop offset=".307" stop-color="#257EC1"></stop><stop offset=".519" stop-color="#2580C3"></stop><stop offset=".622" stop-color="#257CBF"></stop><stop offset=".734" stop-color="#266FB4"></stop><stop offset=".849" stop-color="#2759A2"></stop><stop offset=".967" stop-color="#293B88"></stop><stop offset="1" stop-color="#2A3180"></stop></linearGradient><path d="M415.2 40.2s-1.9-.1-2.8 2.1c-.4.9.8 2.7 1.5 4.4 2.8 7.4 31.7 79.2 31.7 79.2s.6 2.6 3.9 2.6H473S441.1 43 440.8 42.2c-.8-2.2-.4-2.2-3.6-2.2" fill="url(#f)"></path><linearGradient id="g" gradientUnits="userSpaceOnUse" x1="407.264" y1="153.699" x2="407.264" y2="40.069"><stop offset="0" stop-color="#2A3180"></stop><stop offset=".078" stop-color="#284B96"></stop><stop offset=".171" stop-color="#2762AA"></stop><stop offset=".27" stop-color="#2673B8"></stop><stop offset=".38" stop-color="#257DC0"></stop><stop offset=".519" stop-color="#2580C3"></stop><stop offset=".617" stop-color="#257BBF"></stop><stop offset=".734" stop-color="#266CB2"></stop><stop offset=".86" stop-color="#28549E"></stop><stop offset=".993" stop-color="#2A3382"></stop><stop offset="1" stop-color="#2A3180"></stop></linearGradient><path d="M374.1 153.7l38.3-111.4s1.1-2.2 6.3-2.2h20.1c.7 0 3.2-.2.5 6.6-2.7 7.4-38.2 104.4-38.2 104.4s-.6 2.6-3.3 2.6h-23.7z" fill="url(#g)"></path><linearGradient id="h" gradientUnits="userSpaceOnUse" x1="466.115" y1="142.831" x2="570.559" y2="142.831"><stop offset="0" stop-color="#2A3180"></stop><stop offset=".025" stop-color="#293E8B"></stop><stop offset=".082" stop-color="#2856A0"></stop><stop offset=".147" stop-color="#2669AF"></stop><stop offset=".223" stop-color="#2676BB"></stop><stop offset=".321" stop-color="#257EC1"></stop><stop offset=".519" stop-color="#2580C3"></stop><stop offset=".649" stop-color="#257DC0"></stop><stop offset=".751" stop-color="#2673B8"></stop><stop offset=".842" stop-color="#2763AA"></stop><stop offset=".927" stop-color="#284C97"></stop><stop offset="1" stop-color="#2A3180"></stop></linearGradient><path d="M466.7 241.4l2.5-6.7s71.8-187.4 73-190.8 3.6-3.8 6.7-3.8h18.8c1.5 0 4.3-.1 1.8 6.6-2.7 7-67.9 176.2-74.9 194.1-.5 1.4-1.5 4.8-4.9 4.8h-21.8c-3.1 0-1.2-4.2-1.2-4.2z" fill="url(#h)"></path><linearGradient id="i" gradientUnits="userSpaceOnUse" x1="997.245" y1="1915.527" x2="997.245" y2="1861.763" gradientTransform="scale(1 -1) rotate(67.8 2219.143 474.652)"><stop offset=".519" stop-color="#2580C3"></stop><stop offset=".622" stop-color="#257CBF"></stop><stop offset=".734" stop-color="#266FB4"></stop><stop offset=".849" stop-color="#2759A2"></stop><stop offset=".967" stop-color="#293B88"></stop><stop offset="1" stop-color="#2A3180"></stop></linearGradient><path d="M469.8 133.7h-50.7s-3.7.4-2.8-2.9c2-5.4 6.2-16.6 7.2-18.9 1.2-3.1 3.9-2.7 3.9-2.7s16.9.1 35.9.2c.9 0 2.3.4 1.7-2.3l8.4 21.7c1.6 5-3.6 4.9-3.6 4.9z" fill="url(#i)"></path><linearGradient id="j" gradientUnits="userSpaceOnUse" x1="290.159" y1="153.424" x2="290.159" y2="122.332"><stop offset="0" stop-color="#29265B"></stop><stop offset=".05" stop-color="#292F66" stop-opacity=".95"></stop><stop offset=".228" stop-color="#274C87" stop-opacity=".772"></stop><stop offset=".41" stop-color="#2663A2" stop-opacity=".59"></stop><stop offset=".597" stop-color="#2673B4" stop-opacity=".403"></stop><stop offset=".79" stop-color="#257DBF" stop-opacity=".21"></stop><stop offset="1" stop-color="#2580C3" stop-opacity="0"></stop></linearGradient><path d="M286.3 143.2l2.8 7.1s1.1 2.6 2.1 3.1l6.4-17.9 4.4-12.1-23.6-1.1 7.9 20.9z" fill="url(#j)"></path><linearGradient id="k" gradientUnits="userSpaceOnUse" x1="344.674" y1="698.437" x2="327.87" y2="669.331" gradientTransform="matrix(1 0 0 -1 0 748.755)"><stop offset="0" stop-color="#29265B"></stop><stop offset=".197" stop-color="#28447E" stop-opacity=".803"></stop><stop offset=".407" stop-color="#265E9C" stop-opacity=".593"></stop><stop offset=".615" stop-color="#2671B2" stop-opacity=".386"></stop><stop offset=".815" stop-color="#257CBF" stop-opacity=".185"></stop><stop offset="1" stop-color="#2580C3" stop-opacity="0"></stop></linearGradient><path d="M327 53.9l2.1-6.2s2.1-5.8 2.7-4.7c.1.2 13.2 37.1 13.2 37.1l-25.5-5.5 7.5-20.7z" fill="url(#k)"></path><linearGradient id="l" gradientUnits="userSpaceOnUse" x1="2547.31" y1="697.216" x2="2567.471" y2="662.295" gradientTransform="rotate(180 1503.108 374.377)"><stop offset="0" stop-color="#29265B"></stop><stop offset=".073" stop-color="#292E64" stop-opacity=".927"></stop><stop offset=".499" stop-color="#275A97" stop-opacity=".501"></stop><stop offset=".821" stop-color="#2576B7" stop-opacity=".179"></stop><stop offset="1" stop-color="#2580C3" stop-opacity="0"></stop></linearGradient><path d="M440.2 40.8c.4.6.3 2.5-.8 5.5-.6 1.5-1.3 3.5-2.1 5.5-4.1 11.5-10.3 27.9-10.3 27.9l32.7 13.5c0 .1-8.3-22.6-14-38-3-8-5.3-14.5-5.5-14.4z" fill="url(#l)"></path><linearGradient id="m" gradientUnits="userSpaceOnUse" x1="306.681" y1="126.536" x2="274.669" y2="108.054"><stop offset="0" stop-color="#29265B"></stop><stop offset=".197" stop-color="#28447E" stop-opacity=".803"></stop><stop offset=".407" stop-color="#265E9C" stop-opacity=".593"></stop><stop offset=".615" stop-color="#2671B2" stop-opacity=".386"></stop><stop offset=".815" stop-color="#257CBF" stop-opacity=".185"></stop><stop offset="1" stop-color="#2580C3" stop-opacity="0"></stop></linearGradient><path d="M290.2 81.2l13.8 36.6-12.8 35.6s-1.1-.3-2.1-2.8-11.7-30.7-11.7-30.7 6.4-27.1 12.8-38.7z" fill="url(#m)"></path><linearGradient id="n" gradientUnits="userSpaceOnUse" x1="819.915" y1="1226.572" x2="781.793" y2="1236.396" gradientTransform="scale(1 -1) rotate(44.43 2170.286 .318)"><stop offset="0" stop-color="#29265B"></stop><stop offset=".197" stop-color="#28447E" stop-opacity=".803"></stop><stop offset=".407" stop-color="#265E9C" stop-opacity=".593"></stop><stop offset=".615" stop-color="#2671B2" stop-opacity=".386"></stop><stop offset=".815" stop-color="#257CBF" stop-opacity=".185"></stop><stop offset="1" stop-color="#2580C3" stop-opacity="0"></stop></linearGradient><path d="M333.8 112.5l11.8-32.2L332 43.1s-.5-1.5-2 2.5-15.8 44.1-15.8 44.1 6.9 19 19.6 22.8z" fill="url(#n)"></path><linearGradient id="o" gradientUnits="userSpaceOnUse" x1="2719.012" y1="-637.773" x2="2685.128" y2="-625.807" gradientTransform="rotate(-135.56 1718.014 184.655)"><stop offset="0" stop-color="#29265B"></stop><stop offset=".197" stop-color="#28447E" stop-opacity=".803"></stop><stop offset=".407" stop-color="#265E9C" stop-opacity=".593"></stop><stop offset=".615" stop-color="#2671B2" stop-opacity=".386"></stop><stop offset=".815" stop-color="#257CBF" stop-opacity=".185"></stop><stop offset="1" stop-color="#2580C3" stop-opacity="0"></stop></linearGradient><path d="M438.7 108.7l-11.6-28.8 13.3-36.6s.3-1.4 1.8 2.6 16.3 43.7 16.3 43.7-7.2 15.3-19.8 19.1z" fill="url(#o)"></path><linearGradient id="p" gradientUnits="userSpaceOnUse" x1="389.522" y1="126.612" x2="358.033" y2="108.432"><stop offset="0" stop-color="#29265B"></stop><stop offset=".197" stop-color="#28447E" stop-opacity=".803"></stop><stop offset=".407" stop-color="#265E9C" stop-opacity=".593"></stop><stop offset=".615" stop-color="#2671B2" stop-opacity=".386"></stop><stop offset=".815" stop-color="#257CBF" stop-opacity=".185"></stop><stop offset="1" stop-color="#2580C3" stop-opacity="0"></stop></linearGradient><path d="M373.7 81.4l13.2 35.1-13 37.2s-1.6-.7-2.6-3.2-11.2-30.3-11.2-30.3 7.2-27.2 13.6-38.8z" fill="url(#p)"></path><linearGradient id="q" gradientUnits="userSpaceOnUse" x1="449.973" y1="109.396" x2="449.973" y2="91.436"><stop offset="0" stop-color="#29265B"></stop><stop offset=".197" stop-color="#28447E" stop-opacity=".803"></stop><stop offset=".407" stop-color="#265E9C" stop-opacity=".593"></stop><stop offset=".615" stop-color="#2671B2" stop-opacity=".386"></stop><stop offset=".815" stop-color="#257CBF" stop-opacity=".185"></stop><stop offset="1" stop-color="#2580C3" stop-opacity="0"></stop></linearGradient><path d="M447.6 109.3l16.1.1s2.2-.1 1-3c-1-2.5-4.5-12-4.5-12l-1.1-2.9-9.1 4.7-15.2 3 4 10.2 8.8-.1z" fill="url(#q)"></path><linearGradient id="r" gradientUnits="userSpaceOnUse" x1="197.003" y1="154.026" x2="197.003" y2="36.81"><stop offset="0" stop-color="#2A3180"></stop><stop offset=".078" stop-color="#284B96"></stop><stop offset=".171" stop-color="#2762AA"></stop><stop offset=".27" stop-color="#2673B8"></stop><stop offset=".38" stop-color="#257DC0"></stop><stop offset=".519" stop-color="#2580C3"></stop><stop offset=".617" stop-color="#257BBF"></stop><stop offset=".734" stop-color="#266CB2"></stop><stop offset=".86" stop-color="#28549E"></stop><stop offset=".993" stop-color="#2A3382"></stop><stop offset="1" stop-color="#2A3180"></stop></linearGradient><path d="M146 66.4c5.5 1.8 10.5 2.9 15.8 2.9 15.4 0 26.6-7.6 39.9-7.5 25.6 1 22.2 30.8 22.2 30.8l-.6 54.4s-.3 7.1 5.8 7.1c4 0 20-.1 20-.1l-.6-66.3c0-14.4-2.9-27-10.3-34.8-9-9.3-23.7-16.7-39.4-15.9-12.7-.1-21.1 8.2-38 7.4-2.4-.2-4.3-.4-7.4-1.3-2.2-.7-2.7 1.5-2.7 1.5l-5.5 19.2c-.1-.2-.8 1.9.8 2.6z" fill="url(#r)"></path><linearGradient id="s" gradientUnits="userSpaceOnUse" x1="165.413" y1="155.374" x2="165.413" y2="56.261"><stop offset="0" stop-color="#2A3180"></stop><stop offset=".078" stop-color="#284B96"></stop><stop offset=".171" stop-color="#2762AA"></stop><stop offset=".27" stop-color="#2673B8"></stop><stop offset=".38" stop-color="#257DC0"></stop><stop offset=".519" stop-color="#2580C3"></stop><stop offset=".617" stop-color="#257BBF"></stop><stop offset=".734" stop-color="#266CB2"></stop><stop offset=".86" stop-color="#28549E"></stop><stop offset=".993" stop-color="#2A3382"></stop><stop offset="1" stop-color="#2A3180"></stop></linearGradient><path d="M152.6 84.4c0 26.7-.1 60.6-.2 60.6 0 3.8.8 9.2 5.2 9.2h20.7s0-60.5.1-71c0-.5 0-1.2-1.2-.9-4.4 1.2-8.7 2.2-13.8 2.2-3.2 0-6.5 0-9.7-1.1-.9-.3-1.1.4-1.1 1z" fill="url(#s)"></path><linearGradient id="t" gradientUnits="userSpaceOnUse" x1="80.685" y1="154.456" x2="80.685" y2="33.62"><stop offset="0" stop-color="#2A3180"></stop><stop offset=".078" stop-color="#284B96"></stop><stop offset=".171" stop-color="#2762AA"></stop><stop offset=".27" stop-color="#2673B8"></stop><stop offset=".38" stop-color="#257DC0"></stop><stop offset=".519" stop-color="#2580C3"></stop><stop offset=".617" stop-color="#257BBF"></stop><stop offset=".734" stop-color="#266CB2"></stop><stop offset=".86" stop-color="#28549E"></stop><stop offset=".993" stop-color="#2A3382"></stop><stop offset="1" stop-color="#2A3180"></stop></linearGradient><path d="M83.8 33.7l-2.1-.1h-1.1c-3.1 0-6.2.3-9.2.8l-2.1.4c-10.1 2.2-14.8 6.3-28 6-2.5-.1-5.7-.6-7.6-1-2.1-.5-2.4 1.5-2.4 1.5l-5.5 19.3s-.8 2.3 1.7 2.9c6.2 1.6 17.6 2.9 33-2.2 16.5-5.2 25.3-3 25.3-3 16 2.7 28.3 17.6 28.3 35.6 0 19.9-15 36-33.4 36-18.5 0-33.4-16.1-33.4-36 0-5.5 1-10.4 3.1-15.1.4-.8-.5-1.4-1.6-1.2-6.7 1.2-14 1.3-20.4-1.8-.8-.4-1.3.2-1.4.6-1.6 5.7-2.4 11.6-2.4 17.6 0 33.4 25.1 60.4 56.1 60.4s56.1-27.1 56.1-60.4c0-32.2-23.4-58.5-53-60.3z" fill="url(#t)"></path></svg>
