<?xml version="1.0" encoding="UTF-8"?>
<svg version="1.1" xmlns="http://www.w3.org/2000/svg" width="11840" height="2080">
<path d="M0,0 L1450,0 L1477,3 L1503,8 L1528,15 L1551,23 L1574,33 L1595,44 L1617,58 L1628,66 L1641,76 L1651,85 L1659,92 L1679,112 L1688,123 L1700,138 L1714,159 L1724,176 L1732,192 L1740,209 L1750,237 L1757,262 L1762,288 L1765,315 L1765,1765 L1762,1792 L1757,1818 L1750,1843 L1740,1871 L1728,1897 L1716,1918 L1702,1939 L1692,1952 L1681,1965 L1672,1975 L1653,1994 L1642,2003 L1627,2015 L1611,2026 L1596,2035 L1574,2047 L1546,2059 L1543,2060 L-93,2060 L-113,2052 L-134,2042 L-158,2028 L-174,2017 L-191,2004 L-201,1995 L-209,1988 L-229,1968 L-238,1957 L-250,1942 L-261,1926 L-270,1911 L-280,1893 L-292,1866 L-304,1830 L-310,1804 L-314,1776 L-315,1765 L-315,315 L-312,288 L-307,262 L-300,237 L-293,217 L-284,196 L-276,180 L-266,162 L-252,141 L-242,128 L-231,115 L-222,105 L-202,85 L-191,76 L-177,65 L-161,54 L-141,42 L-118,30 L-90,19 L-65,11 L-39,5 L-21,2 Z " fill="#000000" transform="translate(325,20)"/>
<path d="M0,0 L1440,0 L1440,2060 L0,2060 Z " fill="#000000" transform="translate(10400,20)"/>
<path d="M0,0 L1440,0 L1440,2060 L0,2060 Z " fill="#000000" transform="translate(8800,20)"/>
<path d="M0,0 L1440,0 L1440,2060 L0,2060 Z " fill="#000000" transform="translate(7200,20)"/>
<path d="M0,0 L1440,0 L1440,2060 L0,2060 Z " fill="#000000" transform="translate(5610,20)"/>
<path d="M0,0 L1440,0 L1440,2060 L0,2060 Z " fill="#000000" transform="translate(4000,20)"/>
<path d="M0,0 L1440,0 L1440,2060 L0,2060 Z " fill="#000000" transform="translate(2400,20)"/>
<path d="M0,0 L55,0 L78,2 L113,8 L149,18 L178,29 L202,40 L225,53 L246,66 L265,80 L281,93 L292,103 L300,110 L324,134 L331,142 L342,155 L355,172 L368,190 L379,207 L391,227 L403,249 L417,277 L431,310 L444,346 L454,379 L465,423 L473,466 L478,502 L482,546 L484,593 L484,641 L481,691 L478,719 L474,752 L466,797 L457,836 L447,872 L432,916 L421,942 L407,971 L395,993 L380,1016 L386,1023 L452,1089 L460,1096 L561,1197 L559,1201 L442,1318 L438,1316 L328,1206 L320,1199 L264,1143 L258,1147 L241,1159 L226,1168 L203,1180 L177,1191 L141,1203 L112,1210 L74,1216 L53,1218 L4,1218 L-22,1216 L-51,1211 L-83,1203 L-112,1193 L-137,1182 L-159,1171 L-179,1159 L-195,1148 L-209,1138 L-226,1124 L-236,1115 L-244,1108 L-268,1084 L-275,1076 L-286,1063 L-299,1046 L-312,1028 L-325,1008 L-338,986 L-353,958 L-366,930 L-380,895 L-392,860 L-402,824 L-410,791 L-417,753 L-422,716 L-425,689 L-427,660 L-428,636 L-428,570 L-425,523 L-420,481 L-413,440 L-404,399 L-392,357 L-380,322 L-367,290 L-355,264 L-344,242 L-330,218 L-315,194 L-302,176 L-289,159 L-278,146 L-269,136 L-262,128 L-238,104 L-227,95 L-218,87 L-198,72 L-185,63 L-172,55 L-151,43 L-124,30 L-98,20 L-72,12 L-46,6 L-21,2 Z " fill="#FEFEFE" transform="translate(11125,438)"/>
<path d="M0,0 L467,0 L500,4 L525,9 L545,14 L572,23 L598,34 L621,46 L640,58 L657,70 L673,83 L686,95 L704,113 L713,124 L727,142 L740,162 L750,180 L762,205 L771,229 L779,256 L784,280 L788,309 L789,322 L789,369 L787,393 L783,418 L777,443 L769,470 L759,495 L747,520 L737,538 L724,558 L715,570 L702,586 L690,599 L676,613 L665,622 L651,633 L634,644 L616,654 L592,664 L579,668 L588,687 L608,726 L632,773 L655,818 L678,863 L702,910 L725,955 L748,1000 L771,1045 L794,1090 L817,1135 L840,1180 L842,1186 L615,1186 L600,1156 L590,1137 L580,1117 L570,1098 L560,1078 L550,1059 L539,1037 L529,1018 L519,998 L509,979 L499,959 L489,940 L479,920 L469,901 L459,881 L449,862 L438,840 L428,821 L418,801 L408,782 L398,762 L388,743 L378,723 L368,704 L362,692 L362,690 L206,690 L206,1186 L0,1186 Z " fill="#FEFEFE" transform="translate(7589,454)"/>
<path d="M0,0 L1450,0 L1477,3 L1503,8 L1528,15 L1551,23 L1574,33 L1595,44 L1617,58 L1628,66 L1641,76 L1651,85 L1659,92 L1679,112 L1688,123 L1700,138 L1714,159 L1724,176 L1732,192 L1740,209 L1750,237 L1757,262 L1762,288 L1765,315 L1765,1765 L1762,1792 L1757,1818 L1750,1843 L1740,1871 L1728,1897 L1716,1918 L1702,1939 L1692,1952 L1681,1965 L1672,1975 L1653,1994 L1642,2003 L1627,2015 L1611,2026 L1596,2035 L1574,2047 L1546,2059 L1543,2060 L-93,2060 L-113,2052 L-134,2042 L-158,2028 L-174,2017 L-191,2004 L-201,1995 L-209,1988 L-229,1968 L-238,1957 L-250,1942 L-261,1926 L-270,1911 L-280,1893 L-292,1866 L-304,1830 L-310,1804 L-314,1776 L-315,1765 L-315,315 L-312,288 L-307,262 L-300,237 L-293,217 L-284,196 L-276,180 L-266,162 L-252,141 L-242,128 L-231,115 L-222,105 L-202,85 L-191,76 L-177,65 L-161,54 L-141,42 L-118,30 L-90,19 L-65,11 L-39,5 L-21,2 Z M9,80 L-18,83 L-32,86 L-52,91 L-74,99 L-99,111 L-113,119 L-129,130 L-143,141 L-156,153 L-169,166 L-178,177 L-188,190 L-200,209 L-212,232 L-220,251 L-225,266 L-231,290 L-234,311 L-235,323 L-235,1759 L-230,1794 L-225,1813 L-216,1839 L-202,1868 L-190,1887 L-178,1903 L-166,1917 L-149,1934 L-138,1943 L-125,1953 L-106,1965 L-81,1978 L-58,1987 L-44,1991 L-29,1995 L-13,1998 L9,2000 L1440,2000 L1462,1998 L1488,1993 L1521,1982 L1541,1973 L1558,1964 L1579,1950 L1595,1937 L1607,1926 L1620,1913 L1629,1902 L1640,1887 L1650,1871 L1662,1848 L1670,1828 L1676,1809 L1680,1794 L1684,1766 L1685,1757 L1685,323 L1682,296 L1678,277 L1670,251 L1660,228 L1649,207 L1637,189 L1627,176 L1615,162 L1599,146 L1588,137 L1575,127 L1558,116 L1531,102 L1507,93 L1494,89 L1474,84 L1453,81 L1440,80 Z " fill="#989898" transform="translate(325,20)"/>
<path d="M0,0 L732,0 L732,191 L206,191 L206,476 L662,476 L662,668 L206,668 L206,995 L732,995 L732,1186 L0,1186 Z " fill="#FEFEFE" transform="translate(9221,454)"/>
<path d="M0,0 L63,0 L87,2 L124,8 L163,18 L195,29 L220,40 L240,50 L262,63 L281,76 L295,87 L306,96 L319,108 L339,128 L348,139 L360,154 L376,178 L388,199 L400,224 L409,248 L416,270 L423,300 L427,328 L429,351 L234,351 L232,345 L227,320 L219,296 L211,279 L201,263 L191,250 L180,238 L169,229 L155,219 L134,208 L114,201 L96,196 L65,191 L45,190 L18,190 L-17,194 L-41,200 L-60,207 L-76,215 L-90,224 L-101,233 L-110,242 L-121,257 L-129,271 L-137,292 L-141,310 L-143,323 L-143,356 L-140,379 L-134,399 L-126,415 L-118,427 L-106,440 L-91,452 L-72,463 L-53,472 L-31,480 L-1,488 L26,494 L97,508 L136,518 L167,527 L203,540 L229,551 L252,562 L275,575 L293,586 L310,598 L323,608 L336,619 L349,631 L362,644 L369,652 L381,667 L392,683 L400,696 L412,719 L421,740 L430,767 L436,793 L440,821 L441,834 L441,888 L437,919 L430,952 L422,978 L412,1003 L402,1024 L390,1045 L382,1057 L369,1075 L358,1088 L349,1098 L342,1106 L331,1117 L323,1124 L310,1135 L294,1147 L273,1161 L252,1173 L236,1181 L217,1190 L193,1199 L172,1206 L140,1214 L121,1218 L82,1223 L70,1224 L4,1224 L-28,1221 L-64,1215 L-100,1206 L-130,1196 L-156,1185 L-177,1175 L-195,1165 L-214,1153 L-228,1143 L-241,1133 L-254,1122 L-267,1110 L-283,1094 L-292,1083 L-303,1070 L-317,1050 L-330,1029 L-344,1002 L-355,975 L-363,951 L-371,919 L-375,895 L-378,866 L-378,851 L-182,851 L-178,877 L-172,901 L-165,920 L-155,941 L-143,959 L-132,972 L-120,984 L-107,994 L-93,1003 L-77,1011 L-57,1019 L-36,1025 L-15,1029 L4,1031 L18,1032 L52,1032 L69,1031 L100,1026 L123,1020 L142,1013 L158,1005 L173,996 L187,985 L201,971 L212,956 L219,944 L227,925 L232,907 L235,889 L236,878 L236,852 L234,835 L230,817 L224,802 L216,787 L207,775 L199,766 L188,757 L176,748 L158,738 L139,729 L118,721 L93,713 L61,705 L-42,684 L-72,676 L-94,669 L-125,658 L-154,645 L-174,635 L-193,624 L-214,610 L-230,598 L-240,590 L-253,578 L-272,559 L-281,548 L-292,534 L-303,517 L-313,499 L-324,476 L-332,454 L-339,429 L-344,402 L-347,371 L-347,325 L-344,297 L-339,271 L-332,245 L-325,225 L-315,202 L-304,180 L-291,159 L-277,140 L-268,129 L-259,119 L-252,111 L-241,100 L-233,93 L-220,82 L-202,69 L-187,59 L-163,45 L-140,34 L-115,24 L-91,16 L-59,8 L-30,3 Z " fill="#FEFEFE" transform="translate(6321,438)"/>
<path d="M0,0 L63,0 L87,2 L124,8 L163,18 L195,29 L220,40 L240,50 L262,63 L281,76 L295,87 L306,96 L319,108 L339,128 L348,139 L360,154 L376,178 L388,199 L400,224 L409,248 L416,270 L423,300 L427,328 L429,351 L234,351 L232,345 L227,320 L219,296 L211,279 L201,263 L191,250 L180,238 L169,229 L155,219 L134,208 L114,201 L96,196 L65,191 L45,190 L18,190 L-17,194 L-41,200 L-60,207 L-76,215 L-90,224 L-101,233 L-110,242 L-121,257 L-129,271 L-137,292 L-141,310 L-143,323 L-143,356 L-140,379 L-134,399 L-126,415 L-118,427 L-106,440 L-91,452 L-72,463 L-53,472 L-31,480 L-1,488 L26,494 L97,508 L136,518 L167,527 L203,540 L229,551 L252,562 L275,575 L293,586 L310,598 L323,608 L336,619 L349,631 L362,644 L369,652 L381,667 L392,683 L400,696 L412,719 L421,740 L430,767 L436,793 L440,821 L441,834 L441,888 L437,919 L430,952 L422,978 L412,1003 L402,1024 L390,1045 L382,1057 L369,1075 L358,1088 L349,1098 L342,1106 L331,1117 L323,1124 L310,1135 L294,1147 L273,1161 L252,1173 L236,1181 L217,1190 L193,1199 L172,1206 L140,1214 L121,1218 L82,1223 L70,1224 L4,1224 L-28,1221 L-64,1215 L-100,1206 L-130,1196 L-156,1185 L-177,1175 L-195,1165 L-214,1153 L-228,1143 L-241,1133 L-254,1122 L-267,1110 L-283,1094 L-292,1083 L-303,1070 L-317,1050 L-330,1029 L-344,1002 L-355,975 L-363,951 L-371,919 L-375,895 L-378,866 L-378,851 L-182,851 L-178,877 L-172,901 L-165,920 L-155,941 L-143,959 L-132,972 L-120,984 L-107,994 L-93,1003 L-77,1011 L-57,1019 L-36,1025 L-15,1029 L4,1031 L18,1032 L52,1032 L69,1031 L100,1026 L123,1020 L142,1013 L158,1005 L173,996 L187,985 L201,971 L212,956 L219,944 L227,925 L232,907 L235,889 L236,878 L236,852 L234,835 L230,817 L224,802 L216,787 L207,775 L199,766 L188,757 L176,748 L158,738 L139,729 L118,721 L93,713 L61,705 L-42,684 L-72,676 L-94,669 L-125,658 L-154,645 L-174,635 L-193,624 L-214,610 L-230,598 L-240,590 L-253,578 L-272,559 L-281,548 L-292,534 L-303,517 L-313,499 L-324,476 L-332,454 L-339,429 L-344,402 L-347,371 L-347,325 L-344,297 L-339,271 L-332,245 L-325,225 L-315,202 L-304,180 L-291,159 L-277,140 L-268,129 L-259,119 L-252,111 L-241,100 L-233,93 L-220,82 L-202,69 L-187,59 L-163,45 L-140,34 L-115,24 L-91,16 L-59,8 L-30,3 Z " fill="#FEFEFE" transform="translate(3121,438)"/>
<path d="M0,0 L233,0 L247,25 L261,49 L277,77 L293,105 L307,129 L321,154 L331,171 L347,199 L362,225 L378,253 L393,279 L409,307 L424,333 L440,361 L455,387 L471,415 L486,441 L502,469 L506,475 L520,451 L536,423 L550,399 L565,373 L580,347 L595,321 L610,295 L625,269 L640,243 L655,217 L670,191 L685,165 L700,139 L715,113 L729,89 L745,61 L759,37 L774,11 L780,1 L781,0 L1008,0 L1006,5 L993,28 L979,52 L965,76 L950,102 L934,129 L918,157 L902,184 L886,212 L872,236 L858,260 L844,284 L829,310 L815,334 L801,358 L787,382 L772,408 L758,432 L744,456 L730,480 L715,506 L701,530 L687,554 L673,578 L658,604 L644,628 L630,652 L615,678 L607,691 L606,1186 L402,1186 L401,690 L388,668 L373,642 L357,615 L341,587 L327,563 L313,539 L299,515 L284,489 L270,465 L256,441 L242,417 L227,391 L213,367 L199,343 L185,319 L170,293 L156,269 L142,245 L128,221 L113,195 L99,171 L85,147 L71,123 L56,97 L42,73 L28,49 L14,25 L0,1 Z " fill="#FEFEFE" transform="translate(4249,454)"/>
<path d="M0,0 L46,0 L69,4 L84,8 L104,15 L127,27 L139,35 L151,44 L164,56 L179,71 L192,88 L202,102 L217,128 L227,149 L238,177 L246,201 L254,230 L259,255 L266,296 L269,325 L272,361 L273,402 L273,442 L271,485 L267,524 L261,566 L254,602 L246,633 L237,659 L230,674 L226,672 L39,485 L35,487 L-82,604 L-76,611 L119,806 L119,808 L105,815 L90,820 L62,826 L46,828 L2,828 L-17,825 L-38,820 L-59,812 L-75,804 L-89,796 L-102,786 L-116,774 L-129,761 L-138,750 L-149,736 L-161,717 L-171,699 L-183,674 L-196,639 L-206,604 L-214,567 L-218,543 L-223,502 L-226,458 L-227,429 L-227,381 L-225,343 L-221,301 L-215,264 L-209,234 L-201,204 L-190,171 L-180,147 L-170,126 L-157,104 L-146,88 L-135,74 L-123,61 L-111,49 L-97,38 L-82,28 L-66,19 L-47,11 L-28,5 L-7,1 Z " fill="#000000" transform="translate(11130,633)"/>
<path d="M0,0 L159,0 L159,53 L212,53 L212,105 L264,105 L264,158 L317,158 L317,211 L369,211 L369,263 L421,263 L421,315 L474,315 L474,368 L527,368 L527,419 L578,419 L579,420 L579,473 L632,473 L632,578 L579,578 L579,631 L578,632 L527,632 L527,684 L475,684 L475,736 L421,736 L421,788 L369,788 L369,840 L317,840 L317,894 L265,894 L265,946 L213,946 L213,998 L159,998 L159,1051 L0,1051 L0,998 L1,997 L54,997 L54,945 L106,945 L106,893 L158,893 L158,840 L212,840 L212,787 L264,787 L264,735 L316,735 L316,683 L368,683 L368,631 L420,631 L420,578 L474,578 L474,474 L420,474 L420,420 L368,420 L368,368 L316,368 L316,316 L264,316 L264,264 L212,264 L212,211 L158,211 L158,158 L106,158 L106,106 L54,106 L54,54 L0,54 Z " fill="#FDFDFD" transform="translate(303,475)"/>
<path d="M0,0 L251,0 L273,2 L296,8 L315,16 L329,25 L342,36 L352,47 L362,62 L370,79 L376,98 L380,118 L382,133 L382,173 L379,196 L374,217 L367,236 L358,252 L349,264 L341,273 L330,282 L319,289 L303,297 L284,303 L264,307 L245,308 L0,308 Z " fill="#000000" transform="translate(7795,645)"/>
<path d="M0,0 L684,0 L684,105 L0,105 Z " fill="#FEFEFE" transform="translate(1091,1578)"/>
</svg>
