<?xml version="1.0" encoding="UTF-8"?>
<svg xmlns="http://www.w3.org/2000/svg" width="256" height="263" viewBox="0 0 256 263">
  <defs>
    <linearGradient id="a" x1="50%" x2="23.443%" y1="82.276%" y2="44.914%">
      <stop offset="0%" stop-color="#FFD43B"/>
      <stop offset="100%" stop-color="#FFE873"/>
    </linearGradient>
    <linearGradient id="b" x1="0%" x2="74.521%" y1="0%" y2="64.11%">
      <stop offset="0%" stop-color="#5A9FD4"/>
      <stop offset="100%" stop-color="#306998"/>
    </linearGradient>
    <linearGradient id="c" x1="50%" x2="50%" y1="0%" y2="100%">
      <stop offset="0%" stop-color="#FAB161"/>
      <stop offset="100%" stop-color="#F76B1C"/>
    </linearGradient>
    <linearGradient id="d" x1="50%" x2="50%" y1="0%" y2="100%">
      <stop offset="0%" stop-color="#141D24"/>
      <stop offset="100%" stop-color="#3F7CAE"/>
    </linearGradient>
  </defs>
  <g fill="none" fill-rule="evenodd" transform="translate(1 1)">
    <g transform="translate(.005 .511)">
      <path fill="url(#a)" d="M195.706194,66.7899021 L195.706194,94.2111873 C195.706194,115.47054 177.674393,133.363886 157.112184,133.363889 L95.4049695,133.363889 C78.5023299,133.363889 64.5153628,147.823863 64.5153605,164.743627 L64.5153605,223.544644 C64.5153605,240.279752 79.0741456,250.123156 95.4049695,254.924382 C114.960799,260.672022 133.713815,261.710766 157.112184,254.924382 C172.665351,250.423226 188.0018,241.364627 188.001793,223.544644 L188.001793,200.009847 L126.294579,200.009847 L126.294579,192.164912 L188.001793,192.164912 L218.891411,192.164912 C236.846174,192.164912 243.536855,179.646624 249.780997,160.857146 C256.230989,141.513671 255.956546,122.911785 249.780997,98.0976687 C245.343769,80.2315057 236.869008,66.7899021 218.891411,66.7899021 L195.706194,66.7899021 L195.706194,66.7899021 Z M161.000386,215.699716 C167.404637,215.699723 172.59299,220.944835 172.59299,227.431125 C172.592986,233.940492 167.40463,239.234513 161.000386,239.234513 C154.619011,239.234513 149.407782,233.940492 149.407782,227.431125 C149.407787,220.944835 154.619004,215.699716 161.000386,215.699716 L161.000386,215.699716 Z"/>
      <path fill="url(#b)" d="M126.539473,0.00211717976 C115.978186,0.051169296 105.892394,0.951495794 97.0179352,2.52113288 C70.8748917,7.13770573 66.1283285,16.8005885 66.1283262,34.6205904 L66.1283262,58.1553942 L127.907544,58.1553942 L127.907544,66.0003288 L66.1283262,66.0003288 L42.9431185,66.0003288 C24.9883577,66.0003288 9.2666551,76.7873978 4.34910768,97.3080954 C-1.32322106,120.829578 -1.57481968,135.507366 4.34910768,160.067572 C8.74059523,178.34924 19.2280622,191.375334 37.1828184,191.375339 L58.4239248,191.375339 L58.4239248,163.162363 C58.4239248,142.780153 76.0669036,124.801357 97.0179352,124.801353 L158.725149,124.801353 C175.902251,124.801353 189.614765,110.664547 189.614758,93.4216141 L189.614758,34.6205904 C189.614758,17.8854845 175.490549,5.31415439 158.725149,2.52113288 C148.112403,0.75528779 137.10076,-0.0469349365 126.539473,0.00211717976 L126.539473,0.00211717976 Z M93.1297326,18.9307211 C99.5111013,18.9307211 104.722336,24.2247329 104.722336,30.734109 C104.722332,37.2204126 99.5111013,42.465525 93.1297326,42.465525 C86.7254863,42.4655227 81.5371288,37.2204103 81.5371288,30.734109 C81.5371265,24.2247352 86.7254863,18.9307211 93.1297326,18.9307211 L93.1297326,18.9307211 Z"/>
    </g>
    <g transform="translate(1 40.904)">
      <path fill="url(#c)" d="M63.5198796,135.484094 L91.4782058,93.1171549 C92.4438693,93.020782 93.4217001,92.971398 94.4094886,92.971398 L156.116703,92.971398 C175.918686,92.9713957 193.373912,76.3766951 194.637552,56.1621601 L246.737505,126.313473 C240.968343,141.80707 233.915599,151.772422 217.89593,151.772422 L187.006312,151.772422 L125.299098,151.772422 L125.299098,159.617356 L187.006312,159.617356 L187.006312,183.152153 C187.006319,200.972137 171.66987,210.030736 156.116703,214.531892 C132.718334,221.318275 113.965318,220.279531 94.4094886,214.531892 C78.0786647,209.730665 63.5198796,199.887261 63.5198796,183.152153 L63.5198796,135.484094 Z M160.004905,175.307226 C153.623523,175.307226 148.412306,180.552345 148.412302,187.038635 C148.412302,193.548001 153.62353,198.842022 160.004905,198.842022 C166.409149,198.842022 171.597505,193.548001 171.597509,187.038635 C171.597509,180.552345 166.409156,175.307232 160.004905,175.307226 Z"/>
      <path fill="url(#d)" d="M57.4284439,127.920044 L17.3382569,70.1695838 L0.0118364058,102.487952 C0.731767347,107.780729 1.84151308,113.40596 3.35362677,119.675082 C7.74511433,137.956749 18.2325813,150.982844 36.1873375,150.982848 L57.4284439,150.982848 L57.4284439,127.920044 Z M97.2248871,84.408862 L152.927058,0 L188.619278,48.0587005 L188.619278,53.0291235 C188.619284,70.272056 174.90677,84.408862 157.729669,84.408862 L97.2248871,84.408862 Z"/>
    </g>
    <g fill="#FFFCEA" stroke="#FFFCEA" transform="translate(2.32 53.686)">
      <path d="M126.797977 80.1889667L93.2720058 201.802816C93.2113545 201.785076 93.1506956 201.767291 93.090029 201.74946 76.7592051 196.948234 62.20042 187.10483 62.20042 170.369722L62.20042 154.986441 103.440098 80.1889667 126.797977 80.1889667zM128.010363 71.6264307L147.598237.572357857 108.422488 71.6264307 128.010363 71.6264307zM3.15628809 111.014221L12.8739021 71.2140785.0205718493 97.6982392C.586710642 100.621256 1.25734173 103.671984 2.03416716 106.892651 2.37193657 108.298777 2.74576889 109.673813 3.15628809 111.014221z"/>
    </g>
  </g>
</svg>
