<?xml version="1.0" encoding="UTF-8"?>
<svg xmlns="http://www.w3.org/2000/svg" width="435" height="244" viewBox="0 0 435 244">
  <g fill="none" fill-rule="evenodd">
    <rect width="1075" height="605" x="-311" y="-182" fill="#000000"/>
    <g transform="translate(15 18)">
      <g fill="#FFFFFF" stroke="#FFFFFF" stroke-width="3" transform="translate(.004 .4)">
        <path d="M153.037836,52.251329 L153.037836,73.7036527 C153.037836,90.3353498 138.937374,104.33374 122.85819,104.333742 L74.6045376,104.333742 C61.3870541,104.333742 50.4495608,115.646124 50.449559,128.882858 L50.449559,174.884292 C50.449559,187.976565 61.8342011,195.677294 74.6045376,199.433408 C89.8967557,203.929923 104.561192,204.742557 122.85819,199.433408 C135.020416,195.912046 147.013174,188.825289 147.013168,174.884292 L147.013168,156.47246 L98.7595162,156.47246 L98.7595162,150.335181 L147.013168,150.335181 L171.168154,150.335181 C185.208374,150.335181 190.440336,140.541827 195.323115,125.842371 C200.366863,110.70951 200.152254,96.1568127 195.323115,76.7441395 C191.853302,62.7670153 185.22623,52.251329 171.168154,52.251329 L153.037836,52.251329 L153.037836,52.251329 Z M125.898676,168.747018 C130.906656,168.747024 134.963831,172.8504 134.963831,177.924779 C134.963828,183.017211 130.906651,187.15885 125.898676,187.15885 C120.908584,187.15885 116.833521,183.017211 116.833521,177.924779 C116.833525,172.8504 120.908579,168.747018 125.898676,168.747018 L125.898676,168.747018 Z M125.898676,168.747018 C120.908579,168.747018 116.833525,172.8504 116.833521,177.924779 C116.833521,183.017211 120.908584,187.15885 125.898676,187.15885 C130.906651,187.15885 134.963828,183.017211 134.963831,177.924779 C134.963831,172.8504 130.906656,168.747024 125.898676,168.747018 Z M50.449559,137.592435 L72.3123405,104.447771 C73.0674676,104.372376 73.8321093,104.333742 74.6045376,104.333742 L122.85819,104.333742 C138.342895,104.33374 151.992488,91.3513113 152.980626,75.5369998 L193.721616,130.41804 C189.210261,142.53905 183.695174,150.335181 171.168154,150.335181 L147.013168,150.335181 L98.7595162,150.335181 L98.7595162,156.47246 L147.013168,156.47246 L147.013168,174.884292 C147.013174,188.825289 135.020416,195.912046 122.85819,199.433408 C104.561192,204.742557 89.8967557,203.929923 74.6045376,199.433408 C61.8342011,195.677294 50.449559,187.976565 50.449559,174.884292 L50.449559,137.592435 Z"/>
        <path d="M98.9510181,0.00165632008 C90.6923298,0.0400309573 82.8054674,0.744377791 75.8658404,1.97234222 C55.4225692,5.58399696 51.7108636,13.1435 51.7108618,27.0845113 L51.7108618,45.4963481 L100.020819,45.4963481 L100.020819,51.6336271 L51.7108618,51.6336271 L33.5805515,51.6336271 C19.540333,51.6336271 7.2463156,60.0726077 3.40090427,76.1264375 C-1.03472907,94.5278529 -1.23147352,106.010636 3.40090427,125.224669 C6.83494863,139.526852 15.0359117,149.717476 29.0761266,149.71748 L45.6861935,149.71748 L45.6861935,127.645797 C45.6861935,111.70031 59.4826056,97.6350701 75.8658404,97.6350665 L124.119492,97.6350665 C137.551599,97.6350665 148.274476,86.575507 148.274471,73.0859507 L148.274471,27.0845113 C148.274471,13.9922399 137.229657,4.15738938 124.119492,1.97234222 C115.820563,0.590879603 107.209706,-0.0367183172 98.9510181,0.00165632008 L98.9510181,0.00165632008 Z M45.6861935,131.674899 L14.3365701,86.4953405 L0.787699455,111.778768 C1.35066924,115.919434 2.21846541,120.320186 3.40090427,125.224669 C6.83494863,139.526852 15.0359117,149.717476 29.0761266,149.71748 L45.6861935,149.71748 L45.6861935,131.674899 Z M76.8061158,97.6350665 L120.363959,31.6000061 L148.274471,69.1974706 L148.274471,73.0859507 C148.274476,86.575507 137.551599,97.6350665 124.119492,97.6350665 L76.8061158,97.6350665 Z M72.2601985,11.8099534 C77.4896537,11.8099534 81.7601985,16.0838885 81.7601985,21.3390054 C81.7601947,26.5754956 77.4896537,30.8099534 72.2601985,30.8099534 C67.0119953,30.8099515 62.7601985,26.5754937 62.7601985,21.3390054 C62.7601966,16.0838903 67.0119953,11.8099534 72.2601985,11.8099534 Z"/>
      </g>
      <g fill="#FFFFFF" stroke="#FFFFFF" transform="translate(2 42)">
        <path d="M99.9669277 62.733736L73.7503732 157.875143C73.7029452 157.861265 73.6555114 157.847351 73.6080715 157.833402 60.8377349 154.077288 49.4530929 146.376559 49.4530929 133.284286L49.4530929 121.249579 81.7015924 62.733736 99.9669277 62.733736zM100.914986 56.0350604L116.232263.447769165 85.597709 56.0350604 100.914986 56.0350604zM3.28191139 87.8490659L10.8808667 56.7124674.829851905 77.4316563C1.27255969 79.718402 1.7969781 82.1050592 2.40443809 84.624663 2.66856616 85.7247094 2.96089462 86.8004324 3.28191139 87.8490659z"/>
      </g>
    </g>
    <path fill="#FFFFFF" d="M262.28125,76.6953125 C262.28125,79.7422027 261.179699,82.1328038 258.976562,83.8671875 C256.773426,85.6015712 253.734394,86.46875 249.859375,86.46875 C245.984356,86.46875 242.812512,85.8671935 240.34375,84.6640625 L240.34375,79.3671875 C241.906258,80.1015662 243.566397,80.6796854 245.324219,81.1015625 C247.08204,81.5234396 248.718742,81.734375 250.234375,81.734375 C252.453136,81.734375 254.089838,81.3125042 255.144531,80.46875 C256.199224,79.6249958 256.726562,78.4921946 256.726562,77.0703125 C256.726562,75.7890561 256.242192,74.7031295 255.273438,73.8125 C254.304683,72.9218705 252.304703,71.8671936 249.273438,70.6484375 C246.148422,69.3828062 243.945319,67.9375081 242.664062,66.3125 C241.382806,64.6874919 240.742188,62.7343864 240.742188,60.453125 C240.742188,57.5937357 241.757802,55.3437582 243.789062,53.703125 C245.820323,52.0624918 248.546858,51.2421875 251.96875,51.2421875 C255.250016,51.2421875 258.515609,51.9609303 261.765625,53.3984375 L259.984375,57.96875 C256.937485,56.6874936 254.218762,56.046875 251.828125,56.046875 C250.015616,56.046875 248.64063,56.4414023 247.703125,57.2304688 C246.76562,58.0195352 246.296875,59.0624935 246.296875,60.359375 C246.296875,61.2500045 246.484373,62.0117156 246.859375,62.6445312 C247.234377,63.2773469 247.851558,63.8749972 248.710938,64.4375 C249.570317,65.0000028 251.117176,65.7421829 253.351562,66.6640625 C255.8672,67.7109427 257.710932,68.6874955 258.882812,69.59375 C260.054693,70.5000045 260.91406,71.5234318 261.460938,72.6640625 C262.007815,73.8046932 262.28125,75.1484298 262.28125,76.6953125 Z M289.585938,86 L286.234375,73.90625 C285.828123,72.6249936 285.093755,69.6484609 284.03125,64.9765625 L283.820312,64.9765625 C282.914058,69.1953336 282.195315,72.1874912 281.664062,73.953125 L278.21875,86 L272.125,86 L264.859375,60.078125 L270.484375,60.078125 L273.789062,72.8515625 C274.539066,76.0078283 275.070311,78.7109262 275.382812,80.9609375 L275.523438,80.9609375 C275.679688,79.8203068 275.917967,78.5117261 276.238281,77.0351562 C276.558595,75.5585864 276.835936,74.4531287 277.070312,73.71875 L281.007812,60.078125 L287.054688,60.078125 L290.875,73.71875 C291.109376,74.4843788 291.402342,75.6562421 291.753906,77.234375 C292.105471,78.8125079 292.3125,80.0390581 292.375,80.9140625 L292.5625,80.9140625 C292.796876,78.9921779 293.343746,76.3047048 294.203125,72.8515625 L297.554688,60.078125 L303.085938,60.078125 L295.773438,86 L289.585938,86 Z M313.046875,86 L307.539062,86 L307.539062,60.078125 L313.046875,60.078125 L313.046875,86 Z M307.210938,53.2109375 C307.210938,52.2265576 307.480466,51.4687527 308.019531,50.9375 C308.558596,50.4062473 309.32812,50.140625 310.328125,50.140625 C311.29688,50.140625 312.050779,50.4062473 312.589844,50.9375 C313.128909,51.4687527 313.398438,52.2265576 313.398438,53.2109375 C313.398438,54.1484422 313.128909,54.8867161 312.589844,55.4257812 C312.050779,55.9648464 311.29688,56.234375 310.328125,56.234375 C309.32812,56.234375 308.558596,55.9648464 308.019531,55.4257812 C307.480466,54.8867161 307.210938,54.1484422 307.210938,53.2109375 Z M338.335938,78.6171875 C338.335938,81.1484502 337.414072,83.089837 335.570312,84.4414062 C333.726553,85.7929755 331.085955,86.46875 327.648438,86.46875 C324.195295,86.46875 321.421885,85.9453177 319.328125,84.8984375 L319.328125,80.140625 C322.375015,81.546882 325.210924,82.25 327.835938,82.25 C331.226579,82.25 332.921875,81.2265727 332.921875,79.1796875 C332.921875,78.5234342 332.734377,77.9765647 332.359375,77.5390625 C331.984373,77.1015603 331.367192,76.6484398 330.507812,76.1796875 C329.648433,75.7109352 328.453133,75.1796905 326.921875,74.5859375 C323.937485,73.4296817 321.917974,72.2734433 320.863281,71.1171875 C319.808588,69.9609317 319.28125,68.4609467 319.28125,66.6171875 C319.28125,64.3984264 320.175772,62.6757874 321.964844,61.4492188 C323.753915,60.2226501 326.187485,59.609375 329.265625,59.609375 C332.312515,59.609375 335.195299,60.2265563 337.914062,61.4609375 L336.132812,65.609375 C333.335924,64.4531192 330.984385,63.875 329.078125,63.875 C326.17186,63.875 324.71875,64.7031167 324.71875,66.359375 C324.71875,67.1718791 325.097652,67.8593722 325.855469,68.421875 C326.613285,68.9843778 328.265612,69.7578076 330.8125,70.7421875 C332.953136,71.5703166 334.507808,72.3281216 335.476562,73.015625 C336.445317,73.7031284 337.16406,74.4960893 337.632812,75.3945312 C338.101565,76.2929732 338.335938,77.3671813 338.335938,78.6171875 Z M361.703125,78.6171875 C361.703125,81.1484502 360.781259,83.089837 358.9375,84.4414062 C357.093741,85.7929755 354.453142,86.46875 351.015625,86.46875 C347.562483,86.46875 344.789073,85.9453177 342.695312,84.8984375 L342.695312,80.140625 C345.742203,81.546882 348.578112,82.25 351.203125,82.25 C354.593767,82.25 356.289062,81.2265727 356.289062,79.1796875 C356.289062,78.5234342 356.101564,77.9765647 355.726562,77.5390625 C355.351561,77.1015603 354.734379,76.6484398 353.875,76.1796875 C353.015621,75.7109352 351.82032,75.1796905 350.289062,74.5859375 C347.304673,73.4296817 345.285162,72.2734433 344.230469,71.1171875 C343.175776,69.9609317 342.648438,68.4609467 342.648438,66.6171875 C342.648438,64.3984264 343.54296,62.6757874 345.332031,61.4492188 C347.121103,60.2226501 349.554672,59.609375 352.632812,59.609375 C355.679703,59.609375 358.562486,60.2265563 361.28125,61.4609375 L359.5,65.609375 C356.703111,64.4531192 354.351572,63.875 352.445312,63.875 C349.539048,63.875 348.085938,64.7031167 348.085938,66.359375 C348.085938,67.1718791 348.46484,67.8593722 349.222656,68.421875 C349.980473,68.9843778 351.6328,69.7578076 354.179688,70.7421875 C356.320323,71.5703166 357.874995,72.3281216 358.84375,73.015625 C359.812505,73.7031284 360.531248,74.4960893 361,75.3945312 C361.468752,76.2929732 361.703125,77.3671813 361.703125,78.6171875 Z M265.210938,110.09375 C265.210938,113.671893 264.039074,116.414053 261.695312,118.320312 C259.351551,120.226572 256.015647,121.179688 251.6875,121.179688 L248.125,121.179688 L248.125,134 L242.523438,134 L242.523438,99.734375 L252.390625,99.734375 C256.671896,99.734375 259.878896,100.609366 262.011719,102.359375 C264.144542,104.109384 265.210938,106.687483 265.210938,110.09375 Z M248.125,116.46875 L251.101562,116.46875 C253.976577,116.46875 256.085931,115.968755 257.429688,114.96875 C258.773444,113.968745 259.445312,112.406261 259.445312,110.28125 C259.445312,108.31249 258.843756,106.843755 257.640625,105.875 C256.437494,104.906245 254.562513,104.421875 252.015625,104.421875 L248.125,104.421875 L248.125,116.46875 Z M267.53125,108.078125 L273.53125,108.078125 L278.804688,122.773438 C279.601566,124.867198 280.132811,126.835928 280.398438,128.679688 L280.585938,128.679688 C280.726563,127.820308 280.984373,126.77735 281.359375,125.550781 C281.734377,124.324213 283.718732,118.500052 287.3125,108.078125 L293.265625,108.078125 L282.179688,137.445312 C280.164052,142.835964 276.804711,145.53125 272.101562,145.53125 C270.882806,145.53125 269.695318,145.398439 268.539062,145.132812 L268.539062,140.773438 C269.367192,140.960938 270.312495,141.054688 271.375,141.054688 C274.031263,141.054688 275.898432,139.51564 276.976562,136.4375 L277.9375,134 L267.53125,108.078125 Z M306.859375,130.015625 C308.203132,130.015625 309.546868,129.80469 310.890625,129.382812 L310.890625,133.53125 C310.281247,133.796876 309.496099,134.01953 308.535156,134.199219 C307.574214,134.378907 306.57813,134.46875 305.546875,134.46875 C300.328099,134.46875 297.71875,131.718777 297.71875,126.21875 L297.71875,112.25 L294.179688,112.25 L294.179688,109.8125 L297.976562,107.796875 L299.851562,102.3125 L303.25,102.3125 L303.25,108.078125 L310.632812,108.078125 L310.632812,112.25 L303.25,112.25 L303.25,126.125 C303.25,127.453132 303.582028,128.433591 304.246094,129.066406 C304.91016,129.699222 305.781245,130.015625 306.859375,130.015625 Z M338.875,134 L333.34375,134 L333.34375,118.0625 C333.34375,116.06249 332.94141,114.570317 332.136719,113.585938 C331.332027,112.601558 330.054696,112.109375 328.304688,112.109375 C325.992176,112.109375 324.292974,112.800774 323.207031,114.183594 C322.121088,115.566413 321.578125,117.882796 321.578125,121.132812 L321.578125,134 L316.070312,134 L316.070312,97.53125 L321.578125,97.53125 L321.578125,106.789062 C321.578125,108.273445 321.484376,109.859367 321.296875,111.546875 L321.648438,111.546875 C322.398441,110.296869 323.4414,109.328128 324.777344,108.640625 C326.113288,107.953122 327.671866,107.609375 329.453125,107.609375 C335.734406,107.609375 338.875,110.773406 338.875,117.101562 L338.875,134 Z M369.53125,120.992188 C369.53125,125.226584 368.445323,128.531238 366.273438,130.90625 C364.101552,133.281262 361.078144,134.46875 357.203125,134.46875 C354.781238,134.46875 352.640634,133.92188 350.78125,132.828125 C348.921866,131.73437 347.492192,130.164073 346.492188,128.117188 C345.492183,126.070302 344.992188,123.695326 344.992188,120.992188 C344.992188,116.789041 346.070302,113.507824 348.226562,111.148438 C350.382823,108.789051 353.421855,107.609375 357.34375,107.609375 C361.093769,107.609375 364.062489,108.816394 366.25,111.230469 C368.437511,113.644543 369.53125,116.898417 369.53125,120.992188 Z M350.664062,120.992188 C350.664062,126.976592 352.874978,129.96875 357.296875,129.96875 C361.671897,129.96875 363.859375,126.976592 363.859375,120.992188 C363.859375,115.070283 361.656272,112.109375 357.25,112.109375 C354.937488,112.109375 353.261724,112.874992 352.222656,114.40625 C351.183589,115.937508 350.664062,118.132798 350.664062,120.992188 Z M398.664062,134 L393.132812,134 L393.132812,118.0625 C393.132812,116.06249 392.730473,114.570317 391.925781,113.585938 C391.12109,112.601558 389.843759,112.109375 388.09375,112.109375 C385.765613,112.109375 384.062505,112.796868 382.984375,114.171875 C381.906245,115.546882 381.367188,117.851546 381.367188,121.085938 L381.367188,134 L375.859375,134 L375.859375,108.078125 L380.171875,108.078125 L380.945312,111.476562 L381.226562,111.476562 C382.007816,110.242181 383.11718,109.289066 384.554688,108.617188 C385.992195,107.945309 387.585929,107.609375 389.335938,107.609375 C395.554719,107.609375 398.664062,110.773406 398.664062,117.101562 L398.664062,134 Z M262.28125,172.695312 C262.28125,175.742203 261.179699,178.132804 258.976562,179.867188 C256.773426,181.601571 253.734394,182.46875 249.859375,182.46875 C245.984356,182.46875 242.812512,181.867194 240.34375,180.664062 L240.34375,175.367188 C241.906258,176.101566 243.566397,176.679685 245.324219,177.101562 C247.08204,177.52344 248.718742,177.734375 250.234375,177.734375 C252.453136,177.734375 254.089838,177.312504 255.144531,176.46875 C256.199224,175.624996 256.726562,174.492195 256.726562,173.070312 C256.726562,171.789056 256.242192,170.703129 255.273438,169.8125 C254.304683,168.921871 252.304703,167.867194 249.273438,166.648438 C246.148422,165.382806 243.945319,163.937508 242.664062,162.3125 C241.382806,160.687492 240.742188,158.734386 240.742188,156.453125 C240.742188,153.593736 241.757802,151.343758 243.789062,149.703125 C245.820323,148.062492 248.546858,147.242188 251.96875,147.242188 C255.250016,147.242188 258.515609,147.96093 261.765625,149.398438 L259.984375,153.96875 C256.937485,152.687494 254.218762,152.046875 251.828125,152.046875 C250.015616,152.046875 248.64063,152.441402 247.703125,153.230469 C246.76562,154.019535 246.296875,155.062494 246.296875,156.359375 C246.296875,157.250004 246.484373,158.011716 246.859375,158.644531 C247.234377,159.277347 247.851558,159.874997 248.710938,160.4375 C249.570317,161.000003 251.117176,161.742183 253.351562,162.664062 C255.8672,163.710943 257.710932,164.687495 258.882812,165.59375 C260.054693,166.500005 260.91406,167.523432 261.460938,168.664062 C262.007815,169.804693 262.28125,171.14843 262.28125,172.695312 Z M286.609375,182 L285.835938,178.601562 L285.554688,178.601562 C284.789059,179.804694 283.699226,180.749997 282.285156,181.4375 C280.871087,182.125003 279.257822,182.46875 277.445312,182.46875 C274.304672,182.46875 271.960945,181.687508 270.414062,180.125 C268.86718,178.562492 268.09375,176.195328 268.09375,173.023438 L268.09375,156.078125 L273.648438,156.078125 L273.648438,172.0625 C273.648438,174.046885 274.054683,175.535151 274.867188,176.527344 C275.679692,177.519536 276.953116,178.015625 278.6875,178.015625 C281.000012,178.015625 282.699213,177.324226 283.785156,175.941406 C284.871099,174.558587 285.414062,172.242204 285.414062,168.992188 L285.414062,156.078125 L290.945312,156.078125 L290.945312,182 L286.609375,182 Z M320.640625,182 L315.109375,182 L315.109375,166.015625 C315.109375,164.03124 314.734379,162.550786 313.984375,161.574219 C313.234371,160.597651 312.062508,160.109375 310.46875,160.109375 C308.343739,160.109375 306.785161,160.800774 305.792969,162.183594 C304.800776,163.566413 304.304688,165.867171 304.304688,169.085938 L304.304688,182 L298.796875,182 L298.796875,156.078125 L303.109375,156.078125 L303.882812,159.476562 L304.164062,159.476562 C304.882816,158.242181 305.925774,157.289066 307.292969,156.617188 C308.660163,155.945309 310.164054,155.609375 311.804688,155.609375 C315.789082,155.609375 318.429681,156.968736 319.726562,159.6875 L320.101562,159.6875 C320.867191,158.406244 321.945306,157.406254 323.335938,156.6875 C324.726569,155.968746 326.320304,155.609375 328.117188,155.609375 C331.210953,155.609375 333.464837,156.390617 334.878906,157.953125 C336.292976,159.515633 337,161.898421 337,165.101562 L337,182 L331.492188,182 L331.492188,166.015625 C331.492188,164.03124 331.113285,162.550786 330.355469,161.574219 C329.597652,160.597651 328.421883,160.109375 326.828125,160.109375 C324.687489,160.109375 323.121099,160.777337 322.128906,162.113281 C321.136714,163.449225 320.640625,165.499986 320.640625,168.265625 L320.640625,182 Z M366.53125,182 L361,182 L361,166.015625 C361,164.03124 360.625004,162.550786 359.875,161.574219 C359.124996,160.597651 357.953133,160.109375 356.359375,160.109375 C354.234364,160.109375 352.675786,160.800774 351.683594,162.183594 C350.691401,163.566413 350.195312,165.867171 350.195312,169.085938 L350.195312,182 L344.6875,182 L344.6875,156.078125 L349,156.078125 L349.773438,159.476562 L350.054688,159.476562 C350.773441,158.242181 351.816399,157.289066 353.183594,156.617188 C354.550788,155.945309 356.054679,155.609375 357.695312,155.609375 C361.679707,155.609375 364.320306,156.968736 365.617188,159.6875 L365.992188,159.6875 C366.757816,158.406244 367.835931,157.406254 369.226562,156.6875 C370.617194,155.968746 372.210929,155.609375 374.007812,155.609375 C377.101578,155.609375 379.355462,156.390617 380.769531,157.953125 C382.183601,159.515633 382.890625,161.898421 382.890625,165.101562 L382.890625,182 L377.382812,182 L377.382812,166.015625 C377.382812,164.03124 377.00391,162.550786 376.246094,161.574219 C375.488277,160.597651 374.312508,160.109375 372.71875,160.109375 C370.578114,160.109375 369.011724,160.777337 368.019531,162.113281 C367.027339,163.449225 366.53125,165.499986 366.53125,168.265625 L366.53125,182 Z M396.085938,182 L390.578125,182 L390.578125,156.078125 L396.085938,156.078125 L396.085938,182 Z M390.25,149.210938 C390.25,148.226558 390.519529,147.468753 391.058594,146.9375 C391.597659,146.406247 392.367183,146.140625 393.367188,146.140625 C394.335942,146.140625 395.089841,146.406247 395.628906,146.9375 C396.167971,147.468753 396.4375,148.226558 396.4375,149.210938 C396.4375,150.148442 396.167971,150.886716 395.628906,151.425781 C395.089841,151.964846 394.335942,152.234375 393.367188,152.234375 C392.367183,152.234375 391.597659,151.964846 391.058594,151.425781 C390.519529,150.886716 390.25,150.148442 390.25,149.210938 Z M413.617188,178.015625 C414.960944,178.015625 416.304681,177.80469 417.648438,177.382812 L417.648438,181.53125 C417.039059,181.796876 416.253911,182.01953 415.292969,182.199219 C414.332026,182.378907 413.335943,182.46875 412.304688,182.46875 C407.085911,182.46875 404.476562,179.718777 404.476562,174.21875 L404.476562,160.25 L400.9375,160.25 L400.9375,157.8125 L404.734375,155.796875 L406.609375,150.3125 L410.007812,150.3125 L410.007812,156.078125 L417.390625,156.078125 L417.390625,160.25 L410.007812,160.25 L410.007812,174.125 C410.007812,175.453132 410.33984,176.433591 411.003906,177.066406 C411.667972,177.699222 412.539057,178.015625 413.617188,178.015625 Z"/>
  </g>
</svg>
