<?xml version="1.0" encoding="UTF-8"?>
<svg xmlns="http://www.w3.org/2000/svg" width="1597" height="250" viewBox="0 0 1597 250">
  <defs>
    <linearGradient id="a" x1="50%" x2="23.443%" y1="82.276%" y2="44.914%">
      <stop offset="0%" stop-color="#FFD43B"/>
      <stop offset="100%" stop-color="#FFE873"/>
    </linearGradient>
    <linearGradient id="b" x1="0%" x2="74.521%" y1="0%" y2="64.11%">
      <stop offset="0%" stop-color="#5A9FD4"/>
      <stop offset="100%" stop-color="#306998"/>
    </linearGradient>
    <linearGradient id="c" x1="50%" x2="50%" y1="0%" y2="100%">
      <stop offset="0%" stop-color="#FAB161"/>
      <stop offset="100%" stop-color="#F76B1C"/>
    </linearGradient>
    <linearGradient id="d" x1="50%" x2="50%" y1="0%" y2="100%">
      <stop offset="0%" stop-color="#141D24"/>
      <stop offset="100%" stop-color="#3F7CAE"/>
    </linearGradient>
  </defs>
  <g fill="none" fill-rule="evenodd">
    <g transform="translate(41 28)">
      <g transform="translate(.004 .4)">
        <path fill="url(#a)" d="M153.037836,52.251329 L153.037836,73.7036527 C153.037836,90.3353498 138.937374,104.33374 122.85819,104.333742 L74.6045376,104.333742 C61.3870541,104.333742 50.4495608,115.646124 50.449559,128.882858 L50.449559,174.884292 C50.449559,187.976565 61.8342011,195.677294 74.6045376,199.433408 C89.8967557,203.929923 104.561192,204.742557 122.85819,199.433408 C135.020416,195.912046 147.013174,188.825289 147.013168,174.884292 L147.013168,156.47246 L98.7595162,156.47246 L98.7595162,150.335181 L147.013168,150.335181 L171.168154,150.335181 C185.208374,150.335181 190.440336,140.541827 195.323115,125.842371 C200.366863,110.70951 200.152254,96.1568127 195.323115,76.7441395 C191.853302,62.7670153 185.22623,52.251329 171.168154,52.251329 L153.037836,52.251329 L153.037836,52.251329 Z M125.898676,168.747018 C130.906656,168.747024 134.963831,172.8504 134.963831,177.924779 C134.963828,183.017211 130.906651,187.15885 125.898676,187.15885 C120.908584,187.15885 116.833521,183.017211 116.833521,177.924779 C116.833525,172.8504 120.908579,168.747018 125.898676,168.747018 L125.898676,168.747018 Z"/>
        <path fill="url(#b)" d="M98.9510181,0.00165632008 C90.6923298,0.0400309573 82.8054674,0.744377791 75.8658404,1.97234222 C55.4225692,5.58399696 51.7108636,13.1435 51.7108618,27.0845113 L51.7108618,45.4963481 L100.020819,45.4963481 L100.020819,51.6336271 L51.7108618,51.6336271 L33.5805515,51.6336271 C19.540333,51.6336271 7.2463156,60.0726077 3.40090427,76.1264375 C-1.03472907,94.5278529 -1.23147352,106.010636 3.40090427,125.224669 C6.83494863,139.526852 15.0359117,149.717476 29.0761266,149.71748 L45.6861935,149.71748 L45.6861935,127.645797 C45.6861935,111.70031 59.4826056,97.6350701 75.8658404,97.6350665 L124.119492,97.6350665 C137.551599,97.6350665 148.274476,86.575507 148.274471,73.0859507 L148.274471,27.0845113 C148.274471,13.9922399 137.229657,4.15738938 124.119492,1.97234222 C115.820563,0.590879603 107.209706,-0.0367183172 98.9510181,0.00165632008 L98.9510181,0.00165632008 Z M72.8253536,14.8099534 C77.8154402,14.8099534 81.8905087,18.9515847 81.8905087,24.0440245 C81.8905051,29.1184141 77.8154402,33.2217902 72.8253536,33.2217902 C67.8173772,33.2217884 63.7601985,29.1184123 63.7601985,24.0440245 C63.7601967,18.9515865 67.8173772,14.8099534 72.8253536,14.8099534 L72.8253536,14.8099534 Z"/>
      </g>
      <g transform="translate(0 32)">
        <path fill="url(#c)" d="M50.4530929,105.992429 L72.3158743,72.8477651 C73.0710014,72.7723703 73.8356431,72.733736 74.6080715,72.733736 L122.861723,72.733736 C138.346428,72.7337342 151.996022,59.7513052 152.98416,43.9369937 L193.72515,98.8180341 C189.213795,110.939043 183.698708,118.735175 171.171688,118.735175 L147.016702,118.735175 L98.7630501,118.735175 L98.7630501,124.872454 L147.016702,124.872454 L147.016702,143.284286 C147.016707,157.225283 135.02395,164.31204 122.861723,167.833402 C104.564726,173.142551 89.9002895,172.329917 74.6080715,167.833402 C61.8377349,164.077288 50.4530929,156.376559 50.4530929,143.284286 L50.4530929,105.992429 Z M125.90221,137.147012 C120.912113,137.147012 116.837059,141.250394 116.837055,146.324773 C116.837055,151.417205 120.912118,155.558844 125.90221,155.558844 C130.910185,155.558844 134.967362,151.417205 134.967365,146.324773 C134.967365,141.250394 130.91019,137.147018 125.90221,137.147012 Z"/>
        <path fill="url(#d)" d="M45.6897273,100.074893 L14.3401039,54.8953344 L0.791233283,80.1787623 C1.35420307,84.3194279 2.22199924,88.7201796 3.40443809,93.624663 C6.83848246,107.926846 15.0394455,118.11747 29.0796605,118.117473 L45.6897273,118.117473 L45.6897273,100.074893 Z M76.8096496,66.0350604 L120.367493,0 L148.278005,37.5974644 L148.278005,41.4859446 C148.27801,54.9755009 137.555133,66.0350604 124.123026,66.0350604 L76.8096496,66.0350604 Z"/>
      </g>
      <g fill="#FFFCEA" stroke="#FFFCEA" transform="translate(0 41)">
        <path d="M100.966928 63.733736L74.7503732 158.875143C74.7029452 158.861265 74.6555114 158.847351 74.6080715 158.833402 61.8377349 155.077288 50.4530929 147.376559 50.4530929 134.284286L50.4530929 122.249579 82.7015924 63.733736 100.966928 63.733736zM102.088325 59.0350604L118.232263.447769165 85.9443875 59.0350604 102.088325 59.0350604zM4.01259752 93.0500593L12.8808667 56.7124674.987008835 81.230498C1.39518334 83.273181 1.86735313 85.3969586 2.40443809 87.624663 2.85691419 89.5091454 3.39214966 91.3222462 4.01259752 93.0500593z"/>
      </g>
    </g>
    <path fill="#315C80" d="M349.75,152.1875 C349.75,160.312541 346.812529,166.687477 340.9375,171.3125 C335.062471,175.937523 326.958385,178.25 316.625,178.25 C306.291615,178.25 297.833366,176.645849 291.25,173.4375 L291.25,159.3125 C295.416688,161.270843 299.843727,162.812494 304.53125,163.9375 C309.218773,165.062506 313.583313,165.625 317.625,165.625 C323.541696,165.625 327.906236,164.500011 330.71875,162.25 C333.531264,159.999989 334.9375,156.979186 334.9375,153.1875 C334.9375,149.770816 333.645846,146.875012 331.0625,144.5 C328.479154,142.124988 323.145874,139.312516 315.0625,136.0625 C306.729125,132.687483 300.854184,128.833355 297.4375,124.5 C294.020816,120.166645 292.3125,114.958364 292.3125,108.875 C292.3125,101.249962 295.020806,95.2500219 300.4375,90.875 C305.854194,86.4999781 313.124954,84.3125 322.25,84.3125 C331.000044,84.3125 339.70829,86.2291475 348.375,90.0625 L343.625,102.25 C335.499959,98.8333162 328.250032,97.125 321.875,97.125 C317.041643,97.125 313.375013,98.1770728 310.875,100.28125 C308.374987,102.385427 307.125,105.166649 307.125,108.625 C307.125,111.000012 307.624995,113.031242 308.625,114.71875 C309.625005,116.406258 311.270822,117.999992 313.5625,119.5 C315.854178,121.000008 319.979137,122.979154 325.9375,125.4375 C332.645867,128.229181 337.562484,130.833321 340.6875,133.25 C343.812516,135.666679 346.104159,138.395818 347.5625,141.4375 C349.020841,144.479182 349.75,148.062479 349.75,152.1875 Z M420.5625,177 L411.625,144.75 C410.541661,141.333316 408.583348,133.395896 405.75,120.9375 L405.1875,120.9375 C402.770821,132.187556 400.854174,140.166643 399.4375,144.875 L390.25,177 L374,177 L354.625,107.875 L369.625,107.875 L378.4375,141.9375 C380.43751,150.354209 381.854163,157.56247 382.6875,163.5625 L383.0625,163.5625 C383.479169,160.520818 384.114579,157.03127 384.96875,153.09375 C385.822921,149.15623 386.562497,146.208343 387.1875,144.25 L397.6875,107.875 L413.8125,107.875 L424,144.25 C424.625003,146.291677 425.406245,149.416646 426.34375,153.625 C427.281255,157.833354 427.833332,161.104155 428,163.4375 L428.5,163.4375 C429.125003,158.312474 430.583322,151.145879 432.875,141.9375 L441.8125,107.875 L456.5625,107.875 L437.0625,177 L420.5625,177 Z M481.125,177 L466.4375,177 L466.4375,107.875 L481.125,107.875 L481.125,177 Z M465.5625,89.5625 C465.5625,86.9374869 466.281243,84.9166738 467.71875,83.5 C469.156257,82.0833262 471.20832,81.375 473.875,81.375 C476.458346,81.375 478.468743,82.0833262 479.90625,83.5 C481.343757,84.9166738 482.0625,86.9374869 482.0625,89.5625 C482.0625,92.0625125 481.343757,94.0312428 479.90625,95.46875 C478.468743,96.9062572 476.458346,97.625 473.875,97.625 C471.20832,97.625 469.156257,96.9062572 467.71875,95.46875 C466.281243,94.0312428 465.5625,92.0625125 465.5625,89.5625 Z M546.5625,157.3125 C546.5625,164.062534 544.104191,169.239565 539.1875,172.84375 C534.270809,176.447935 527.229213,178.25 518.0625,178.25 C508.854121,178.25 501.458361,176.854181 495.875,174.0625 L495.875,161.375 C504.000041,165.125019 511.562465,167 518.5625,167 C527.604212,167 532.125,164.270861 532.125,158.8125 C532.125,157.062491 531.625005,155.604173 530.625,154.4375 C529.624995,153.270827 527.979178,152.062506 525.6875,150.8125 C523.395822,149.562494 520.208354,148.145841 516.125,146.5625 C508.166627,143.479151 502.781264,140.395849 499.96875,137.3125 C497.156236,134.229151 495.75,130.229191 495.75,125.3125 C495.75,119.395804 498.135393,114.8021 502.90625,111.53125 C507.677107,108.2604 514.166626,106.625 522.375,106.625 C530.500041,106.625 538.187464,108.270817 545.4375,111.5625 L540.6875,122.625 C533.229129,119.541651 526.958359,118 521.875,118 C514.124961,118 510.25,120.208311 510.25,124.625 C510.25,126.791678 511.260407,128.624993 513.28125,130.125 C515.302093,131.625007 519.708299,133.687487 526.5,136.3125 C532.208362,138.520844 536.354154,140.541657 538.9375,142.375 C541.520846,144.208343 543.437494,146.322905 544.6875,148.71875 C545.937506,151.114595 546.5625,153.97915 546.5625,157.3125 Z M606.875,157.3125 C606.875,164.062534 604.416691,169.239565 599.5,172.84375 C594.583309,176.447935 587.541713,178.25 578.375,178.25 C569.166621,178.25 561.770861,176.854181 556.1875,174.0625 L556.1875,161.375 C564.312541,165.125019 571.874965,167 578.875,167 C587.916712,167 592.4375,164.270861 592.4375,158.8125 C592.4375,157.062491 591.937505,155.604173 590.9375,154.4375 C589.937495,153.270827 588.291678,152.062506 586,150.8125 C583.708322,149.562494 580.520854,148.145841 576.4375,146.5625 C568.479127,143.479151 563.093764,140.395849 560.28125,137.3125 C557.468736,134.229151 556.0625,130.229191 556.0625,125.3125 C556.0625,119.395804 558.447893,114.8021 563.21875,111.53125 C567.989607,108.2604 574.479126,106.625 582.6875,106.625 C590.812541,106.625 598.499964,108.270817 605.75,111.5625 L601,122.625 C593.541629,119.541651 587.270859,118 582.1875,118 C574.437461,118 570.5625,120.208311 570.5625,124.625 C570.5625,126.791678 571.572907,128.624993 573.59375,130.125 C575.614593,131.625007 580.020799,133.687487 586.8125,136.3125 C592.520862,138.520844 596.666654,140.541657 599.25,142.375 C601.833346,144.208343 603.749994,146.322905 605,148.71875 C606.250006,151.114595 606.875,153.97915 606.875,157.3125 Z M714.0625,113.25 C714.0625,122.791714 710.937531,130.104141 704.6875,135.1875 C698.437469,140.270859 689.541724,142.8125 678,142.8125 L668.5,142.8125 L668.5,177 L653.5625,177 L653.5625,85.625 L679.875,85.625 C691.291724,85.625 699.843722,87.95831 705.53125,92.625 C711.218778,97.29169 714.0625,104.166621 714.0625,113.25 Z M668.5,130.25 L676.4375,130.25 C684.104205,130.25 689.729149,128.91668 693.3125,126.25 C696.895851,123.58332 698.6875,119.416695 698.6875,113.75 C698.6875,108.499974 697.083349,104.583346 693.875,102 C690.666651,99.4166537 685.666701,98.125 678.875,98.125 L668.5,98.125 L668.5,130.25 Z M718.25,107.875 L734.25,107.875 L748.3125,147.0625 C750.437511,152.645861 751.854163,157.895809 752.5625,162.8125 L753.0625,162.8125 C753.437502,160.520822 754.124995,157.7396 755.125,154.46875 C756.125005,151.1979 761.416619,135.666806 771,107.875 L786.875,107.875 L757.3125,186.1875 C751.937473,200.562572 742.979229,207.75 730.4375,207.75 C727.187484,207.75 724.020849,207.395837 720.9375,206.6875 L720.9375,195.0625 C723.145844,195.562502 725.666653,195.8125 728.5,195.8125 C735.583369,195.8125 740.562486,191.708374 743.4375,183.5 L746,177 L718.25,107.875 Z M827.125,166.375 C830.708351,166.375 834.291649,165.812506 837.875,164.6875 L837.875,175.75 C836.249992,176.458337 834.156263,177.052081 831.59375,177.53125 C829.031237,178.010419 826.375014,178.25 823.625,178.25 C809.708264,178.25 802.75,170.91674 802.75,156.25 L802.75,119 L793.3125,119 L793.3125,112.5 L803.4375,107.125 L808.4375,92.5 L817.5,92.5 L817.5,107.875 L837.1875,107.875 L837.1875,119 L817.5,119 L817.5,156 C817.5,159.541684 818.385408,162.156242 820.15625,163.84375 C821.927092,165.531258 824.249986,166.375 827.125,166.375 Z M910.5,177 L895.75,177 L895.75,134.5 C895.75,129.16664 894.677094,125.187513 892.53125,122.5625 C890.385406,119.937487 886.97919,118.625 882.3125,118.625 C876.145802,118.625 871.614598,120.468732 868.71875,124.15625 C865.822902,127.843768 864.375,134.02079 864.375,142.6875 L864.375,177 L849.6875,177 L849.6875,79.75 L864.375,79.75 L864.375,104.4375 C864.375,108.395853 864.125002,112.624977 863.625,117.125 L864.5625,117.125 C866.56251,113.79165 869.343732,111.208343 872.90625,109.375 C876.468768,107.541657 880.624976,106.625 885.375,106.625 C902.125084,106.625 910.5,115.062416 910.5,131.9375 L910.5,177 Z M987.25,142.3125 C987.25,153.604223 984.354196,162.416635 978.5625,168.75 C972.770804,175.083365 964.708385,178.25 954.375,178.25 C947.916634,178.25 942.208358,176.791681 937.25,173.875 C932.291642,170.958319 928.47918,166.770861 925.8125,161.3125 C923.14582,155.854139 921.8125,149.520869 921.8125,142.3125 C921.8125,131.104111 924.687471,122.354198 930.4375,116.0625 C936.187529,109.770802 944.291614,106.625 954.75,106.625 C964.75005,106.625 972.666637,109.843718 978.5,116.28125 C984.333363,122.718782 987.25,131.395779 987.25,142.3125 Z M936.9375,142.3125 C936.9375,158.270913 942.833274,166.25 954.625,166.25 C966.291725,166.25 972.125,158.270913 972.125,142.3125 C972.125,126.520754 966.250059,118.625 954.5,118.625 C948.333302,118.625 943.864597,120.666646 941.09375,124.75 C938.322903,128.833354 936.9375,134.687462 936.9375,142.3125 Z M1059.9375,177 L1045.1875,177 L1045.1875,134.5 C1045.1875,129.16664 1044.11459,125.187513 1041.96875,122.5625 C1039.82291,119.937487 1036.41669,118.625 1031.75,118.625 C1025.54164,118.625 1021.00001,120.458315 1018.125,124.125 C1015.24999,127.791685 1013.8125,133.937457 1013.8125,142.5625 L1013.8125,177 L999.125,177 L999.125,107.875 L1010.625,107.875 L1012.6875,116.9375 L1013.4375,116.9375 C1015.52084,113.645817 1018.47915,111.104176 1022.3125,109.3125 C1026.14585,107.520824 1030.39581,106.625 1035.0625,106.625 C1051.64592,106.625 1059.9375,115.062416 1059.9375,131.9375 L1059.9375,177 Z M1163.875,152.1875 C1163.875,160.312541 1160.93753,166.687477 1155.0625,171.3125 C1149.18747,175.937523 1141.08338,178.25 1130.75,178.25 C1120.41662,178.25 1111.95837,176.645849 1105.375,173.4375 L1105.375,159.3125 C1109.54169,161.270843 1113.96873,162.812494 1118.65625,163.9375 C1123.34377,165.062506 1127.70831,165.625 1131.75,165.625 C1137.6667,165.625 1142.03124,164.500011 1144.84375,162.25 C1147.65626,159.999989 1149.0625,156.979186 1149.0625,153.1875 C1149.0625,149.770816 1147.77085,146.875012 1145.1875,144.5 C1142.60415,142.124988 1137.27087,139.312516 1129.1875,136.0625 C1120.85412,132.687483 1114.97918,128.833355 1111.5625,124.5 C1108.14582,120.166645 1106.4375,114.958364 1106.4375,108.875 C1106.4375,101.249962 1109.14581,95.2500219 1114.5625,90.875 C1119.97919,86.4999781 1127.24995,84.3125 1136.375,84.3125 C1145.12504,84.3125 1153.83329,86.2291475 1162.5,90.0625 L1157.75,102.25 C1149.62496,98.8333162 1142.37503,97.125 1136,97.125 C1131.16664,97.125 1127.50001,98.1770728 1125,100.28125 C1122.49999,102.385427 1121.25,105.166649 1121.25,108.625 C1121.25,111.000012 1121.74999,113.031242 1122.75,114.71875 C1123.75001,116.406258 1125.39582,117.999992 1127.6875,119.5 C1129.97918,121.000008 1134.10414,122.979154 1140.0625,125.4375 C1146.77087,128.229181 1151.68748,130.833321 1154.8125,133.25 C1157.93752,135.666679 1160.22916,138.395818 1161.6875,141.4375 C1163.14584,144.479182 1163.875,148.062479 1163.875,152.1875 Z M1226.75,177 L1224.6875,167.9375 L1223.9375,167.9375 C1221.89582,171.145849 1218.9896,173.666657 1215.21875,175.5 C1211.4479,177.333343 1207.14586,178.25 1202.3125,178.25 C1193.93746,178.25 1187.68752,176.166687 1183.5625,172 C1179.43748,167.833313 1177.375,161.520876 1177.375,153.0625 L1177.375,107.875 L1192.1875,107.875 L1192.1875,150.5 C1192.1875,155.791693 1193.27082,159.760403 1195.4375,162.40625 C1197.60418,165.052097 1200.99998,166.375 1205.625,166.375 C1211.7917,166.375 1216.3229,164.531268 1219.21875,160.84375 C1222.1146,157.156232 1223.5625,150.97921 1223.5625,142.3125 L1223.5625,107.875 L1238.3125,107.875 L1238.3125,177 L1226.75,177 Z M1315.5,177 L1300.75,177 L1300.75,134.375 C1300.75,129.083307 1299.75001,125.13543 1297.75,122.53125 C1295.74999,119.92707 1292.62502,118.625 1288.375,118.625 C1282.70831,118.625 1278.5521,120.468732 1275.90625,124.15625 C1273.2604,127.843768 1271.9375,133.979124 1271.9375,142.5625 L1271.9375,177 L1257.25,177 L1257.25,107.875 L1268.75,107.875 L1270.8125,116.9375 L1271.5625,116.9375 C1273.47918,113.645817 1276.2604,111.104176 1279.90625,109.3125 C1283.5521,107.520824 1287.56248,106.625 1291.9375,106.625 C1302.56255,106.625 1309.60415,110.249964 1313.0625,117.5 L1314.0625,117.5 C1316.10418,114.083316 1318.97915,111.416676 1322.6875,109.5 C1326.39585,107.583324 1330.64581,106.625 1335.4375,106.625 C1343.68754,106.625 1349.6979,108.708313 1353.46875,112.875 C1357.2396,117.041687 1359.125,123.395791 1359.125,131.9375 L1359.125,177 L1344.4375,177 L1344.4375,134.375 C1344.4375,129.083307 1343.42709,125.13543 1341.40625,122.53125 C1339.38541,119.92707 1336.25002,118.625 1332,118.625 C1326.29164,118.625 1322.1146,120.406232 1319.46875,123.96875 C1316.8229,127.531268 1315.5,132.999963 1315.5,140.375 L1315.5,177 Z M1435.875,177 L1421.125,177 L1421.125,134.375 C1421.125,129.083307 1420.12501,125.13543 1418.125,122.53125 C1416.12499,119.92707 1413.00002,118.625 1408.75,118.625 C1403.08331,118.625 1398.9271,120.468732 1396.28125,124.15625 C1393.6354,127.843768 1392.3125,133.979124 1392.3125,142.5625 L1392.3125,177 L1377.625,177 L1377.625,107.875 L1389.125,107.875 L1391.1875,116.9375 L1391.9375,116.9375 C1393.85418,113.645817 1396.6354,111.104176 1400.28125,109.3125 C1403.9271,107.520824 1407.93748,106.625 1412.3125,106.625 C1422.93755,106.625 1429.97915,110.249964 1433.4375,117.5 L1434.4375,117.5 C1436.47918,114.083316 1439.35415,111.416676 1443.0625,109.5 C1446.77085,107.583324 1451.02081,106.625 1455.8125,106.625 C1464.06254,106.625 1470.0729,108.708313 1473.84375,112.875 C1477.6146,117.041687 1479.5,123.395791 1479.5,131.9375 L1479.5,177 L1464.8125,177 L1464.8125,134.375 C1464.8125,129.083307 1463.80209,125.13543 1461.78125,122.53125 C1459.76041,119.92707 1456.62502,118.625 1452.375,118.625 C1446.66664,118.625 1442.4896,120.406232 1439.84375,123.96875 C1437.1979,127.531268 1435.875,132.999963 1435.875,140.375 L1435.875,177 Z M1512.6875,177 L1498,177 L1498,107.875 L1512.6875,107.875 L1512.6875,177 Z M1497.125,89.5625 C1497.125,86.9374869 1497.84374,84.9166738 1499.28125,83.5 C1500.71876,82.0833262 1502.77082,81.375 1505.4375,81.375 C1508.02085,81.375 1510.03124,82.0833262 1511.46875,83.5 C1512.90626,84.9166738 1513.625,86.9374869 1513.625,89.5625 C1513.625,92.0625125 1512.90626,94.0312428 1511.46875,95.46875 C1510.03124,96.9062572 1508.02085,97.625 1505.4375,97.625 C1502.77082,97.625 1500.71876,96.9062572 1499.28125,95.46875 C1497.84374,94.0312428 1497.125,92.0625125 1497.125,89.5625 Z M1557.4375,166.375 C1561.02085,166.375 1564.60415,165.812506 1568.1875,164.6875 L1568.1875,175.75 C1566.56249,176.458337 1564.46876,177.052081 1561.90625,177.53125 C1559.34374,178.010419 1556.68751,178.25 1553.9375,178.25 C1540.02076,178.25 1533.0625,170.91674 1533.0625,156.25 L1533.0625,119 L1523.625,119 L1523.625,112.5 L1533.75,107.125 L1538.75,92.5 L1547.8125,92.5 L1547.8125,107.875 L1567.5,107.875 L1567.5,119 L1547.8125,119 L1547.8125,156 C1547.8125,159.541684 1548.69791,162.156242 1550.46875,163.84375 C1552.23959,165.531258 1554.56249,166.375 1557.4375,166.375 Z"/>
  </g>
</svg>
